<?xml version="1.0" encoding="utf-8"?>
<!-- Generator: Adobe Illustrator 27.1.0, SVG Export Plug-In . SVG Version: 6.00 Build 0)  -->
<svg version="1.1" id="Layer_1" xmlns="http://www.w3.org/2000/svg" xmlns:xlink="http://www.w3.org/1999/xlink" x="0px" y="0px"
	 viewBox="0 0 841.89 595.28" style="enable-background:new 0 0 841.89 595.28;" xml:space="preserve">
<style type="text/css">
	.st0{fill:#615DFF;}
	.st1{fill:url(#SVGID_1_);}
	.st2{fill:#64C7FF;}
	.st3{fill:#293477;}
	.st4{fill:#3DD9EB;}
</style>
<g>
	<path class="st0" d="M179.85,221.74c0.05,11.84-9.19,20.72-20.62,20.76c-11.47,0.04-20.69-8.89-20.77-20.86
		c-0.07-11.19,9.27-20.69,20.67-20.71C170.35,200.92,180.16,210.24,179.85,221.74z"/>
	<path class="st0" d="M252.32,254.6c-0.01,11.6-9.09,20.66-20.72,20.67c-11.6,0-20.66-9.08-20.65-20.72
		c0-11.52,9.1-20.61,20.61-20.61C243.23,233.94,252.33,242.99,252.32,254.6z"/>
	<path class="st0" d="M330.28,238.22c-0.01,11.6-9.09,20.66-20.72,20.67c-11.6,0-20.66-9.08-20.65-20.72
		c0-11.52,9.1-20.61,20.61-20.61C321.18,217.56,330.28,226.61,330.28,238.22z"/>
	<linearGradient id="SVGID_1_" gradientUnits="userSpaceOnUse" x1="63.3676" y1="323.1076" x2="399.8961" y2="323.1076">
		<stop  offset="0" style="stop-color:#64C7FF"/>
		<stop  offset="0.933" style="stop-color:#615DFF"/>
	</linearGradient>
	<path class="st1" d="M398.54,329.99c-1.68-2.43-4.17-2.98-6.85-3c-6.7-0.04-13.41-0.23-20.11-0.03c-2.9,0.09-2.48,0.04-9.28,0.21
		c-2.55,0.06-5.11-0.02-7.66,0.15c-2.46,0.16-5.07,0.45-8.6-0.23c-0.15-0.03-0.77-0.15-1.22-0.27c-3.95-1.05-9.99-5.29-9.81-10.93
		c0.17-5.29,0.16-10.6-0.01-15.89c-0.09-2.9-0.33-5.88-1.09-8.66c-1.94-7.06-6.52-12.02-13.05-15.26
		c-7.56-3.75-14.66-2.62-17.04-2.22c-2.12,0.35-3.89,0.88-4.86,1.24c-7.97,2.94-16.63,12.88-16.63,23.51
		c-0.01,16.6,0.03,33.2-0.04,49.8c-0.02,6.04-4.66,10.53-10.54,10.49c-5.95-0.04-10.36-4.54-10.37-10.61
		c-0.01-10.85,0.11-21.71-0.06-32.56c-0.08-5.29-1.73-10.2-4.95-14.53c-6.96-9.36-16.66-11.27-27.4-9.87
		c-4.17,0.54-8.04,2.27-11.36,5.02c-6.44,5.33-9.51,12.15-9.48,20.49c0.06,16.22-0.01,32.43,0.03,48.65
		c0.02,9.83-9.96,13.8-17.48,9.97c-4.17-2.13-5.73-5.96-5.72-10.62c0.05-28.35,0.04-56.69,0.01-85.04
		c-0.01-11.22-7.33-20.52-17.56-23.72c-4.36-1.37-8.81-1.24-13.25-0.96c-3.52,0.22-6.83,1.37-9.87,3.21
		c-8.51,5.14-12.56,12.77-12.57,22.62c-0.02,13.53-0.19,27.07,0.08,40.6c0.12,6.17-4.3,11.17-10.43,11.6h-2.32
		c-3.99-0.12-7.99-0.01-11.94-0.01c0,0,0,0.01,0,0.01h-3.95c-1.04-0.16-2.12-0.08-3.24,0H79.74c-0.02,0-0.04,0.01-0.05,0.01
		c-3.26,0-6.53,0-9.79,0.04c-2.98,0.04-5.41,2.14-6.19,4.83c-1.36,4.7,1.4,9.56,7.21,9.55c16.92-0.05,33.83-0.02,50.75-0.03
		c5.6,0,10.6-1.82,14.99-5.25c6.65-5.18,9.62-12.22,9.7-20.46c0.13-13.34,0.03-26.69,0.04-40.03c0-1.08-0.01-2.18,0.11-3.25
		c0.23-2.11,0.97-3.89,2.14-5.29c1.41-1.7,3.09-2.41,4.31-2.9c4.75-1.9,9.43-0.94,11.58-0.34c0.84,0.37,2.9,1.4,4.43,3.75
		c1.39,2.13,1.6,4.21,1.64,5.13c0,0.65,0,1.34,0,2.02c0,16.53-0.01,33.07,0,49.6c0,12.38,0.02,24.77,0.04,37.16
		c0.01,3.73,1.09,7.22,2.87,10.4c4.44,7.91,11.24,12.32,20.34,13.06c5.5,0.45,10.83-0.17,15.67-2.97
		c8.79-5.08,13.06-12.75,13.01-22.93c-0.08-16.09-0.08-32.18,0.06-48.26c0.02-2.19,0.63-4.61,1.72-6.49
		c2.85-4.92,7.74-5.67,12.82-5.03c6.07,0.76,9.69,5.96,9.55,11.18c-0.27,10.14-0.07,20.3-0.08,30.45
		c-0.01,4.72,1.04,9.13,3.24,13.34c6.4,12.25,23.19,16.76,34.92,9.38c8.27-5.21,12.05-12.88,12.15-22.37
		c0.17-16.09,0.17-32.18-0.02-48.26c-0.07-5.52,3.88-10.11,8.9-10.93c8.7-1.42,15.29,3.32,14.94,12.05
		c-0.21,5.1-0.03,10.21-0.04,15.32c-0.01,3.74,0.43,7.45,2.04,10.82c4.72,9.86,12.63,14.9,23.6,15.02
		c3.51,0.04,7.02,0.01,10.53,0.01c11.94,0,23.88,0.01,35.81-0.02c2.93-0.01,5.25-1.41,6.44-3.99
		C400.26,335.01,400.2,332.39,398.54,329.99z"/>
</g>
<g>
	<path class="st0" d="M454.76,359.65c-1.48,0-2.92-0.09-4.32-0.28c-1.4-0.18-2.59-0.43-3.55-0.72l-1.11-15.52
		c1.48,0.37,2.77,0.63,3.88,0.78c1.11,0.15,2.25,0.22,3.44,0.22c3.1,0,5.26-0.85,6.48-2.55c1.22-1.7,1.83-4.47,1.83-8.31v-60.41
		h15.52v58.19c0,5.02-0.41,9.33-1.22,12.91c-0.81,3.58-2.11,6.54-3.88,8.87c-1.77,2.33-4.07,4.05-6.87,5.15
		C462.15,359.09,458.75,359.65,454.76,359.65z"/>
	<path class="st0" d="M497.99,245.36h15.52v74.38h14.19v15.52h-29.71V245.36z"/>
	<path class="st0" d="M606.73,305.22c0,5.32,1.28,9.26,3.82,11.8c2.55,2.55,5.93,3.82,10.14,3.82c4.43,0,7.76-1.26,9.98-3.77
		c2.22-2.51,3.33-5.91,3.33-10.2v-41.79h15.41v39.79c0,1.77-0.07,3.46-0.22,5.04c-0.15,1.59-0.33,3.12-0.55,4.6
		c3.25,3.47,8.42,5.21,15.52,5.21v15.52c-3.03,0-5.65-0.26-7.87-0.78c-2.22-0.52-4.1-1.22-5.65-2.11s-2.83-1.88-3.82-2.99
		c-1-1.11-1.83-2.22-2.49-3.33c-4.66,6.87-12.53,10.31-23.61,10.31c-2.14,0-4.25-0.17-6.32-0.5c-2.07-0.33-4.06-0.9-5.99-1.72
		c-1.92-0.81-3.71-1.9-5.38-3.27c-1.66-1.37-3.12-3.08-4.38-5.15c-2.81,2.96-6.13,5.28-9.98,6.98c-3.84,1.7-7.87,2.55-12.08,2.55
		h-50.99v-15.52h24.16V278.4h15.52v41.35h11.31c1.62,0,3.31-0.2,5.04-0.61c1.74-0.41,3.33-1.14,4.77-2.22
		c1.44-1.07,2.61-2.49,3.49-4.27s1.33-4.03,1.33-6.76V278.4h15.52V305.22z"/>
	<path class="st0" d="M661.82,319.74h10.75c-0.3-1.11-0.5-2.25-0.61-3.44c-0.11-1.18-0.17-2.4-0.17-3.66
		c0-4.73,0.87-9.15,2.61-13.25c1.74-4.1,4.1-7.69,7.09-10.75c2.99-3.07,6.5-5.49,10.53-7.26c4.03-1.77,8.33-2.66,12.91-2.66
		c4.66,0,9.03,0.87,13.13,2.6c4.1,1.74,7.68,4.12,10.75,7.15c3.07,3.03,5.47,6.61,7.21,10.75c1.74,4.14,2.6,8.61,2.6,13.41
		c0,4.73-0.91,9.11-2.72,13.13c-1.81,4.03-4.27,7.52-7.37,10.48c-3.1,2.95-6.69,5.28-10.75,6.98c-4.06,1.7-8.35,2.55-12.86,2.55
		c-4.73,0-9.16-0.94-13.3-2.83c-4.14-1.88-7.76-4.45-10.86-7.7h-18.95V319.74z M697.96,328.89c2.14,0.92,4.47,1.39,6.98,1.39
		c2.51,0,4.88-0.44,7.09-1.33s4.16-2.12,5.82-3.71c1.66-1.59,2.96-3.47,3.88-5.65c0.92-2.18,1.38-4.56,1.38-7.15
		c0-2.59-0.44-4.99-1.33-7.21s-2.14-4.14-3.77-5.76c-1.63-1.62-3.55-2.9-5.76-3.82c-2.22-0.92-4.66-1.39-7.32-1.39
		c-2.59,0-4.95,0.48-7.09,1.44c-2.14,0.96-3.99,2.25-5.54,3.88c-1.55,1.63-2.77,3.55-3.66,5.76s-1.33,4.58-1.33,7.09
		c0,2.51,0.44,4.86,1.33,7.04c0.89,2.18,2.12,4.07,3.71,5.65C693.95,326.71,695.81,327.96,697.96,328.89z"/>
</g>
<g>
	<path class="st3" d="M483.2,373.28c-1.97,0-5.81,0.48-11.53,1.43v-2.18c1.35-0.27,2.24-0.43,2.66-0.48
		c-1.28-0.92-1.92-2.28-1.92-4.1c0-1.83,0.58-3.25,1.75-4.26c1.17-1,2.65-1.51,4.45-1.51c1.38,0,2.59,0.29,3.63,0.88l-0.66,2.24
		c-1.05-0.52-2.02-0.78-2.91-0.78c-2.38,0-3.57,1.2-3.57,3.6c0,1.56,0.63,2.69,1.89,3.38c2.77-0.37,4.84-0.59,6.2-0.66V373.28z"/>
	<path class="st3" d="M501.89,369.24c0,0.88,0.27,1.58,0.82,2.09c0.55,0.52,1.26,0.78,2.15,0.78h0.48v2.34h-0.1
		c-1.68,0-2.79-0.57-3.35-1.71v1.71h-16.15v-2.34h6.71l-3.86-16.38h2.78l3.86,16.38h3.99v-20.42h2.66V369.24z"/>
	<path class="st3" d="M504.74,374.45v-2.34h3.86c-0.66-1.04-1-2.53-1-4.46c0-2.35,0.65-4.28,1.95-5.78c1.3-1.5,2.99-2.25,5.09-2.25
		c2.03,0,3.67,0.64,4.94,1.92c1.26,1.28,1.89,3.05,1.89,5.31c0,1.04-0.22,2.05-0.67,3.04c-0.44,0.98-1.03,1.72-1.76,2.23h5.25v2.34
		H504.74z M511.33,372.11h2.72c1.51,0,2.68-0.47,3.5-1.41s1.24-2.26,1.24-3.94c0-1.5-0.38-2.68-1.15-3.54
		c-0.77-0.86-1.77-1.29-3.02-1.29c-1.24,0-2.27,0.52-3.1,1.55c-0.83,1.03-1.24,2.42-1.24,4.17
		C510.27,369.66,510.62,371.14,511.33,372.11z"/>
	<path class="st3" d="M542.09,374.45h-3.66c-1.84,0-3.69-0.5-5.54-1.49c-1.71,1-3.56,1.49-5.57,1.49h-3.61v-2.34h3.58
		c1.41,0,2.6-0.2,3.57-0.6c-1.23-0.89-2.34-2.14-3.34-3.77c-1-1.62-1.62-3.25-1.87-4.89c0.91-1.22,2.11-2.17,3.61-2.86
		c1.5-0.69,3.02-1.03,4.57-1.03c2.83,0,5.01,0.63,6.55,1.89c0,2.08-0.48,4.08-1.44,6.02c-0.96,1.94-2.28,3.47-3.94,4.62
		c1.15,0.42,2.26,0.63,3.32,0.63h3.77V374.45z M528.52,363.64c0.59,2.57,2.06,4.74,4.4,6.52c2.93-1.97,4.5-4.66,4.71-8.06
		c-0.77-0.54-2.01-0.8-3.72-0.8c-0.99,0-2,0.23-3.04,0.69C529.83,362.44,529.04,362.99,528.52,363.64z"/>
	<path class="st3" d="M541.5,372.11h4.1v-20.42h2.66v22.76h-6.76V372.11z"/>
	<path class="st3" d="M556.02,374.45h-2.66v-22.76h2.66V374.45z"/>
	<path class="st3" d="M584.56,372.11v-12.19h2.54v14.53h-13.21c-1.71,0-3.07-0.52-4.08-1.57c-1.01-1.04-1.52-2.46-1.52-4.24
		c0-1.57,0.25-3.07,0.75-4.51h2.4c-0.3,1.47-0.45,2.9-0.45,4.29c0,1.07,0.26,1.96,0.77,2.65s1.2,1.04,2.06,1.04H584.56z
		 M575.96,353.81c1.04,0,1.57,0.56,1.57,1.68c0,1.11-0.52,1.67-1.57,1.67c-1.03,0-1.55-0.56-1.55-1.67
		C574.41,354.37,574.92,353.81,575.96,353.81z M580.55,353.81c1.03,0,1.55,0.56,1.55,1.68c0,1.11-0.52,1.67-1.55,1.67
		c-1.04,0-1.56-0.56-1.56-1.67C578.98,354.37,579.51,353.81,580.55,353.81z"/>
	<path class="st3" d="M594.86,372.11h4.11v2.34h-6.77v-22.76h2.66V372.11z"/>
	<path class="st3" d="M598.37,372.11h4.7c-1.03-1.16-1.55-2.67-1.55-4.52c0-2.33,0.74-4.19,2.21-5.58s3.47-2.08,6-2.08h3.92v14.53
		h-15.27V372.11z M609.81,362.25c-1.78,0-3.16,0.47-4.15,1.4c-0.99,0.94-1.49,2.24-1.49,3.91c0,3.03,1.37,4.55,4.1,4.55h2.82v-9.86
		H609.81z M606.57,353.81c1.03,0,1.55,0.56,1.55,1.68c0,1.11-0.52,1.67-1.55,1.67c-1.04,0-1.57-0.56-1.57-1.67
		C605.01,354.37,605.53,353.81,606.57,353.81z M611.15,353.81c1.04,0,1.57,0.56,1.57,1.68c0,1.11-0.52,1.67-1.57,1.67
		c-1.03,0-1.55-0.56-1.55-1.67C609.6,354.37,610.12,353.81,611.15,353.81z"/>
	<path class="st3" d="M633.96,369.24c0,0.88,0.27,1.58,0.82,2.09c0.55,0.52,1.26,0.78,2.15,0.78h0.48v2.34h-0.1
		c-1.68,0-2.79-0.57-3.35-1.71v1.71h-16.15v-2.34h6.71l-3.86-16.38h2.78l3.86,16.38h3.99v-20.42h2.66V369.24z"/>
	<path class="st3" d="M636.81,374.45v-2.34h4.75c-1.41-1.27-2.12-3.04-2.12-5.32c0-2.28,0.65-4.05,1.95-5.3
		c1.3-1.25,3.03-1.87,5.17-1.87c1.6,0,2.99,0.29,4.17,0.88l-0.8,2.24c-1.23-0.52-2.4-0.78-3.51-0.78c-2.84,0-4.26,1.65-4.26,4.94
		c0,1.54,0.34,2.79,1.02,3.76c0.68,0.97,1.57,1.45,2.67,1.45h5.34v2.34H636.81z"/>
	<path class="st3" d="M669.27,374.74c-2.19,0-3.9-0.59-5.12-1.79c-1.22-1.19-1.83-2.91-1.83-5.16c0-2.23,0.66-4.15,1.98-5.76
		c1.32-1.61,3.01-2.41,5.05-2.41c1.92,0,3.56,0.82,4.92,2.46s2.03,3.54,2.03,5.72C676.31,372.42,673.96,374.74,669.27,374.74z
		 M669.33,372.44c2.86,0,4.29-1.54,4.29-4.62c0-1.83-0.39-3.27-1.18-4.32c-0.79-1.05-1.83-1.57-3.13-1.57
		c-1.21,0-2.23,0.54-3.05,1.63c-0.82,1.09-1.24,2.51-1.24,4.26C665.02,370.9,666.45,372.44,669.33,372.44z M666.99,353.81
		c1.04,0,1.57,0.56,1.57,1.68c0,1.11-0.52,1.67-1.57,1.67c-1.03,0-1.55-0.56-1.55-1.67C665.44,354.37,665.96,353.81,666.99,353.81z
		 M671.58,353.81c1.03,0,1.55,0.56,1.55,1.68c0,1.11-0.52,1.67-1.55,1.67c-1.04,0-1.57-0.56-1.57-1.67
		C670.02,354.37,670.54,353.81,671.58,353.81z"/>
	<path class="st3" d="M685.39,359.92v15.24c0,2.02-0.46,3.6-1.39,4.75c-0.93,1.15-2.24,1.73-3.95,1.73c-1.54,0-2.9-0.48-4.07-1.45
		l1.2-1.83c0.84,0.62,1.78,0.94,2.81,0.94c0.88,0,1.58-0.37,2.1-1.1c0.52-0.73,0.78-1.7,0.78-2.9v-15.39H685.39z"/>
	<path class="st3" d="M693.15,374.45h-2.66v-22.76h2.66V374.45z"/>
	<path class="st3" d="M696.44,372.11h9.98c-1.01-5.73-3.13-9.35-6.35-10.84l0.97-2.28c4.09,1.6,6.74,5.99,7.96,13.18v2.28h-12.55
		V372.11z"/>
	<path class="st3" d="M711.68,372.11h6.71l-3.86-16.38h2.78l3.86,16.38h0.82c2.12,0,3.17-1.16,3.17-3.47v-16.96h2.66v17.31
		c0,1.64-0.5,2.96-1.51,3.96c-1,1-2.35,1.5-4.04,1.5h-10.61V372.11z M723.76,381.28c-1.23,0-3.16,0.24-5.79,0.72v-1.38l1.42-0.2
		c-0.7-0.49-1.05-1.12-1.05-1.89c0-0.86,0.28-1.52,0.85-2c0.57-0.47,1.3-0.71,2.21-0.71c0.7,0,1.36,0.15,1.97,0.45l-0.45,1.35
		c-0.5-0.23-1-0.35-1.49-0.35c-1.04,0-1.57,0.51-1.57,1.52c0,0.63,0.3,1.1,0.91,1.4c1.75-0.24,2.75-0.37,3-0.38V381.28z"/>
</g>
<rect x="420.94" y="233.43" class="st3" width="6.34" height="157.36"/>
</svg>
