<?xml version="1.0" encoding="UTF-8"?>
<svg id="OBJECTS" xmlns="http://www.w3.org/2000/svg" xmlns:xlink="http://www.w3.org/1999/xlink" viewBox="0 0 452.88 427.8">
  <defs>
    <style>
      .cls-1, .cls-2, .cls-3, .cls-4, .cls-5, .cls-6, .cls-7, .cls-8, .cls-9, .cls-10, .cls-11, .cls-12, .cls-13, .cls-14, .cls-15, .cls-16, .cls-17 {
        fill-rule: evenodd;
      }

      .cls-1, .cls-18 {
        fill: #ed8e26;
      }

      .cls-19, .cls-5 {
        fill: #d8b99c;
      }

      .cls-20, .cls-2 {
        fill: #fff;
      }

      .cls-21 {
        fill: #e2ba13;
      }

      .cls-22 {
        fill: #d9e5f9;
      }

      .cls-23, .cls-13 {
        fill: #5e3a17;
      }

      .cls-24 {
        fill: #755027;
      }

      .cls-25, .cls-10 {
        fill: #e2801e;
      }

      .cls-3, .cls-26 {
        fill: #131e66;
      }

      .cls-27 {
        fill: #db8914;
      }

      .cls-4, .cls-28 {
        fill: #c9c9c9;
      }

      .cls-29 {
        clip-path: url(#clippath-2);
      }

      .cls-30 {
        fill: #b2b2b2;
      }

      .cls-31 {
        fill: #b7cae5;
      }

      .cls-32 {
        fill: #fbb020;
      }

      .cls-33 {
        clip-path: url(#clippath-1);
      }

      .cls-34 {
        clip-path: url(#clippath-4);
      }

      .cls-35, .cls-11 {
        fill: #d87819;
      }

      .cls-36, .cls-14 {
        fill: #c16c06;
      }

      .cls-6 {
        fill: #d99;
      }

      .cls-37, .cls-16 {
        fill: #898989;
      }

      .cls-7 {
        fill: #f2b033;
      }

      .cls-8 {
        fill: #edbcbc;
      }

      .cls-9, .cls-38 {
        fill: #c84513;
      }

      .cls-39 {
        clip-path: url(#clippath);
      }

      .cls-40 {
        fill: none;
      }

      .cls-41 {
        fill: #bbf2d1;
      }

      .cls-42 {
        fill: #cbdbef;
      }

      .cls-43 {
        fill: #091238;
      }

      .cls-12 {
        fill: #f2b891;
      }

      .cls-44 {
        fill: #41383d;
      }

      .cls-45 {
        fill: #f7cd1c;
      }

      .cls-15 {
        fill: #936435;
      }

      .cls-17 {
        fill: #f9e2c7;
      }
    </style>
    <clipPath id="clippath">
      <path class="cls-40" d="m185.83,53.06l4.37,12.93c.07.22.04.45-.09.64-.13.19-.33.29-.55.29h-17.95v-15.61h11.84c1.07,0,2.03.7,2.38,1.75Z"/>
    </clipPath>
    <clipPath id="clippath-1">
      <path class="cls-40" d="m191.69,71.2v8.5c0,.78-.62,1.42-1.37,1.42h-11.46l-1.94-3.79c-.98-1.92-2.56-3.49-4.46-4.42l-.85-.42v-2.51l18.96.05c.62,0,1.12.52,1.12,1.17Z"/>
    </clipPath>
    <clipPath id="clippath-2">
      <path class="cls-40" d="m191.69,71.2v8.5c0,.78-.62,1.42-1.37,1.42h-11.46l-1.94-3.79c-.98-1.92-2.56-3.49-4.46-4.42l-.85-.42v-2.51l18.96.05c.62,0,1.12.52,1.12,1.17Z"/>
    </clipPath>
    <clipPath id="clippath-4">
      <path class="cls-40" d="m158.94,53.78c.13-1.41,1.26-2.47,2.63-2.47h6.37v23.64l-10.56-5.23,1.56-15.94Z"/>
    </clipPath>
  </defs>
  <path class="cls-22" d="m391.97,362.88c5.7-10.25,11.36-20.74,15.9-32.07,7.97-19.86,14.4-42.14,16.04-67.95.24-3.76.2-7.56.66-11.43.24,26.2-3.72,49.01-9.46,69.4-5.04,17.86-12.1,34.17-20.5,48.5-1.18,2.01-2.55,3.94-3.55,6.05,20.03-26.6,35.7-58.71,41.54-99.76,1.95-13.7,2.6-29.12,1.45-44.69-1.6-21.51-6.39-41.03-12.75-57.83-2.15-5.69-4.68-11.05-7.36-16.3-10.22-20.06-22.44-38.43-37.06-54.29-.72-.78-1-1.21-1.58-1.18-.43.02-1.68.75-2.63,1.18-2.86,1.29-5.66,2.54-8.15,3.68-25.27,11.54-50.37,23.34-74.53,35.49-7.03,3.53-14.16,6.76-21.03,10.38-6.89,3.64-13.83,7.22-20.77,10.65-3.46,1.71-6.82,3.66-10.25,5.39-10.51,5.28-20.62,11.03-31.28,16.03,50.1-28.54,100.69-56.72,150.76-85.17,3.35-1.9,6.68-3.9,10.12-5.65-1.11-1.56-2.66-2.69-4.08-3.94-1.42-1.26-2.74-2.75-4.47-3.68-15.07,7.28-30.51,13.92-45.74,20.9-15.23,6.98-30.08,14.62-44.95,21.82-.25.1.59-.41.79-.53,6.71-4,13.38-8.23,20.11-12.36,6.73-4.12,13.41-8.31,20.11-12.49,11.75-7.32,23.64-14.44,35.23-21.68,1.62-1.01,3.48-1.9,4.73-3.42-19.74-14.34-43.02-26.19-72.16-31.28-7.42-1.3-15.16-2.19-23.13-2.76-25.47-1.82-50.08,1.25-70.32,6.31-27.35,6.83-50.83,18.17-70.98,32.46-10.21,7.25-19.35,15.14-28,23.79-8.09,8.09-15.07,17.47-21.42,27.08-.41.62-.93,1.47-1.84,1.44-.11-1,.73-1.77,1.18-2.5,7.78-12.44,16.8-23.77,26.81-33.78,10.77-10.77,22.94-20.14,35.88-28.65,25.98-17.08,56.77-29.79,94.11-35.09-24.9.36-46.51,5.12-65.85,11.7-19.2,6.52-36.24,15.47-51.52,26.02-30.37,20.96-54.63,49.54-70.98,84.25-8.19,17.38-14.61,37.23-17.87,59.67-2.45,16.82-2.8,36.96-.79,54.41,3.33,28.95,11.76,52.74,22.87,74.13,6.79,13.07,14.77,25.05,23.74,35.89h1.82c-2.42-3.47-4.79-6.99-7.02-10.65-11.75-19.34-20.55-41.54-25.89-67.17-.48-2.32-1.03-4.68-1.18-7.1,5.96,25.6,15.34,48.51,27.21,68.74,3.27,5.57,6.71,10.97,10.35,16.17h316.28c4.09-5.77,7.9-11.82,11.42-18.15Z"/>
  <g>
    <g>
      <path class="cls-14" d="m139.67,355.97c-29.85.5-60.22.19-89.96-.13,1.87-6.43,5.29-12.88,9.88-18.25,5.09-5.97,11.11-11.01,21.01-12.61,5.1-.82,9.92,1.23,12.57,3.15,4.85,3.52,6.49,8.85,12.57,11.82,2.8,1.36,6.35,2.08,10.77,2.63,3.96.49,8.73.54,11.85,1.71,4.71,1.76,7.09,6.06,9.88,9.45.6.73,1.27,1.49,1.44,2.23Z"/>
      <g>
        <g>
          <path class="cls-28" d="m43.27,355.09h367.51c6.82,0,12.36,5.54,12.36,12.36v1.36c0,6.82-5.54,12.36-12.36,12.36H43.27c-6.82,0-12.36-5.54-12.36-12.36v-1.36c0-6.82,5.54-12.36,12.36-12.36Z"/>
          <path class="cls-28" d="m57.58,377.1h335.77c6.82,0,12.36,5.54,12.36,12.36v1.36c0,6.82-5.54,12.36-12.36,12.36H57.58c-6.82,0-12.36-5.54-12.36-12.36v-1.36c0-6.82,5.54-12.36,12.36-12.36Z"/>
          <path class="cls-28" d="m141.52,408.82h213.39c4.97,0,9,4.03,9,9v.99c0,4.97-4.03,9-9,9h-213.39c-4.97,0-9-4.03-9-9v-.99c0-4.97,4.03-9,9-9Z"/>
        </g>
        <g>
          <g>
            <g>
              <path class="cls-37" d="m146.24,380.57h140.91c2.32,0,4.21,1.89,4.21,4.21v.46c0,2.32-1.89,4.21-4.21,4.21h-140.91c-2.32,0-4.21-1.89-4.21-4.21v-.46c0-2.32,1.89-4.21,4.21-4.21Z"/>
              <rect class="cls-37" x="312.17" y="374.04" width="41.6" height="7.42" rx="3.52" ry="3.52"/>
              <rect class="cls-30" x="217.84" y="398.84" width="77.45" height="13.82" rx="6.55" ry="6.55"/>
              <rect class="cls-37" x="84.37" y="380.57" width="49.74" height="8.88" rx="4.21" ry="4.21"/>
            </g>
            <g>
              <path class="cls-30" d="m176.18,364.77h34.56c1.94,0,3.52,1.58,3.52,3.52v.38c0,1.94-1.58,3.52-3.52,3.52h-34.56c-1.94,0-3.52-1.58-3.52-3.52v-.38c0-1.94,1.58-3.52,3.52-3.52Z"/>
              <rect class="cls-30" x="220.13" y="364.77" width="78.81" height="7.42" rx="3.52" ry="3.52"/>
            </g>
          </g>
          <g>
            <path class="cls-2" d="m273.22,375.64c0,1.95-1.58,3.54-3.54,3.54s-3.54-1.59-3.54-3.54,1.58-3.54,3.54-3.54,3.54,1.58,3.54,3.54Z"/>
            <path class="cls-2" d="m127.24,393.68c0,1.95-1.58,3.54-3.54,3.54s-3.54-1.59-3.54-3.54,1.58-3.54,3.54-3.54,3.54,1.58,3.54,3.54Z"/>
            <path class="cls-2" d="m366.54,372.8c0,1.95-1.58,3.54-3.54,3.54s-3.54-1.58-3.54-3.54,1.58-3.54,3.54-3.54,3.54,1.58,3.54,3.54Z"/>
            <path class="cls-2" d="m173.27,377.46c0,1.95-1.58,3.54-3.54,3.54s-3.54-1.58-3.54-3.54,1.58-3.54,3.54-3.54,3.54,1.58,3.54,3.54Z"/>
            <path class="cls-2" d="m338.7,372.8c0,1.17-.95,2.12-2.11,2.12s-2.11-.95-2.11-2.12.95-2.11,2.11-2.11,2.11.95,2.11,2.11Z"/>
            <path class="cls-2" d="m120.17,369.15c0,1.17-.95,2.12-2.12,2.12s-2.11-.95-2.11-2.12.95-2.11,2.11-2.11,2.12.95,2.12,2.11Z"/>
            <path class="cls-2" d="m252.44,377.75c0,1.17-.95,2.11-2.11,2.11s-2.11-.95-2.11-2.11.95-2.12,2.11-2.12,2.11.95,2.11,2.12Z"/>
            <path class="cls-2" d="m225.55,364.19c0,1.17-.95,2.11-2.11,2.11s-2.12-.95-2.12-2.11.95-2.11,2.12-2.11,2.11.95,2.11,2.11Z"/>
            <path class="cls-2" d="m136.75,385.95c0,1.17-.95,2.12-2.12,2.12s-2.11-.95-2.11-2.12.95-2.11,2.11-2.11,2.12.95,2.12,2.11Z"/>
            <path class="cls-2" d="m373.08,366.3c0,1.17-.95,2.12-2.12,2.12s-2.11-.95-2.11-2.12.95-2.12,2.11-2.12,2.12.95,2.12,2.12Z"/>
            <path class="cls-2" d="m298.37,389.44c0,1.17-.95,2.11-2.11,2.11s-2.12-.95-2.12-2.11.95-2.11,2.12-2.11,2.11.95,2.11,2.11Z"/>
            <path class="cls-2" d="m262.22,385.95c0,.77-.62,1.4-1.4,1.4s-1.4-.62-1.4-1.4.63-1.4,1.4-1.4,1.4.63,1.4,1.4Z"/>
            <path class="cls-2" d="m355.57,393.68c0,.77-.63,1.4-1.4,1.4s-1.4-.63-1.4-1.4.62-1.4,1.4-1.4,1.4.63,1.4,1.4Z"/>
            <path class="cls-2" d="m191.93,368.13c0,.77-.62,1.4-1.4,1.4s-1.4-.62-1.4-1.4.62-1.4,1.4-1.4,1.4.62,1.4,1.4Z"/>
            <path class="cls-2" d="m144.71,395.07c0,.77-.63,1.4-1.4,1.4s-1.4-.62-1.4-1.4.62-1.4,1.4-1.4,1.4.63,1.4,1.4Z"/>
            <path class="cls-2" d="m130.45,364.19c0,.77-.62,1.4-1.4,1.4s-1.4-.62-1.4-1.4.62-1.4,1.4-1.4,1.4.62,1.4,1.4Z"/>
          </g>
        </g>
      </g>
      <g>
        <g>
          <path class="cls-2" d="m311.48,355.66c7.71-.37,15.45-.79,23.16-.84v-164.42h-14.58v-22.43h-23.16v187.54h14.58v.15Z"/>
          <polygon class="cls-2" points="375.94 328.08 375.94 246.73 361.56 241.96 361.56 355.5 373.37 355.5 375.94 355.5 394.37 355.5 394.37 328.08 375.94 328.08"/>
          <polygon class="cls-2" points="224.37 114.81 214.42 114.81 214.42 196.09 205.48 196.09 205.48 338.16 215.43 338.16 215.43 256.88 224.37 256.88 224.37 114.81"/>
          <polygon class="cls-4" points="284.71 157.78 284.71 64.12 223.73 75.64 223.73 203.03 219.19 203.03 219.19 355.5 223.73 355.5 247.7 355.5 259.32 355.5 284.71 355.5 291 355.5 291 157.78 284.71 157.78"/>
          <polygon class="cls-4" points="201.71 102.04 201.71 95.23 152.66 95.23 152.66 102.04 139.88 102.04 139.88 355.5 214.49 355.5 214.49 102.04 201.71 102.04"/>
          <rect class="cls-28" x="315.9" y="201.37" width="45.66" height="154.13"/>
          <g>
            <rect class="cls-30" x="231.42" y="80.37" width="2.8" height="208.19"/>
            <rect class="cls-30" x="241.86" y="80.37" width="2.81" height="208.19"/>
            <rect class="cls-30" x="252.3" y="80.37" width="2.8" height="208.19"/>
            <rect class="cls-30" x="262.75" y="80.37" width="2.8" height="208.19"/>
            <rect class="cls-30" x="273.19" y="80.37" width="2.8" height="208.19"/>
          </g>
          <rect class="cls-37" x="302.6" y="309.41" width="47.35" height="46.09"/>
          <polygon class="cls-16" points="262.61 355.5 202.05 355.5 202.05 190.97 262.61 206.97 262.61 355.5"/>
        </g>
        <g>
          <polygon class="cls-38" points="307.47 349.09 307.47 355.1 216.45 355.1 216.45 349.09 251.75 349.09 271.32 349.09 307.47 349.09"/>
          <polygon class="cls-18" points="307.47 320.76 307.47 349.09 271.32 349.09 271.32 317.02 251.75 317.02 251.75 349.09 216.45 349.09 216.45 320.76 216.45 315.43 216.45 307 307.47 307 307.47 315.43 307.47 320.76"/>
          <polygon class="cls-38" points="216.45 305.51 216.45 302.87 261.95 302.87 307.47 302.87 307.47 305.51 307.47 307 216.45 307 216.45 305.51"/>
          <path class="cls-35" d="m307.47,288.75v14.13h-45.52v-44.1h45.52v29.97Zm-12.61,1.57v-20.32h-18.73v20.32h18.73Z"/>
          <path class="cls-18" d="m307.47,245.94v12.84h-45.52v-41.7h45.52v28.86Zm-12.61,1.07v-20.31h-18.73v20.31h18.73Z"/>
          <path class="cls-18" d="m216.45,258.98v-.21h45.5v44.1h-45.5v-43.89Zm32.47,31.33v-20.32h-18.73v20.32h18.73Z"/>
          <path class="cls-35" d="m216.45,245.94v-28.86h45.5v41.7h-45.5v-12.84Zm32.47,1.07v-20.31h-18.73v20.31h18.73Z"/>
        </g>
        <g>
          <polygon class="cls-37" points="98.87 55.59 97.9 54.34 163.17 3.22 273.53 39.61 273.03 41.11 163.48 4.99 98.87 55.59"/>
          <g>
            <g>
              <g>
                <g>
                  <g>
                    <path class="cls-37" d="m320.77,59.04H100.92c-.45,0-.86-.29-1-.72-.14-.43,0-.9.36-1.18l18.48-14.04c.18-.14.41-.21.64-.21h21.73c.2,0,.39.05.55.16l22.62,13.88h16.65l22.8-13.88c.17-.1.36-.15.55-.15h91.95c.18,0,.37.05.53.14l24.51,14.03c.41.24.62.73.5,1.19-.12.46-.54.78-1.02.78Zm-135.75-2.11h131.78l-20.82-11.92h-91.38l-19.59,11.92Zm-80.97,0h56.21l-19.44-11.92h-21.08l-15.7,11.92Z"/>
                    <g>
                      <path class="cls-37" d="m204.31,59.04c-.18,0-.36-.04-.52-.14-.33-.19-.54-.54-.54-.92v-14.03c0-.58.47-1.06,1.06-1.06s1.06.47,1.06,1.06v12.15l21.38-13.06c.33-.2.73-.21,1.07-.02.33.19.54.54.54.92v14.03c0,.58-.47,1.06-1.06,1.06s-1.06-.47-1.06-1.06v-12.15l-21.38,13.05c-.17.1-.36.15-.55.15Z"/>
                      <path class="cls-37" d="m250.29,59.04c-.18,0-.36-.04-.52-.14-.33-.19-.54-.54-.54-.92v-14.03c0-.58.47-1.06,1.06-1.06s1.06.47,1.06,1.06v12.15l21.38-13.06c.33-.2.73-.21,1.07-.02.33.19.54.54.54.92v14.03c0,.58-.47,1.06-1.06,1.06s-1.06-.47-1.06-1.06v-12.15l-21.38,13.05c-.17.1-.36.15-.55.15Z"/>
                      <path class="cls-37" d="m227.3,59.04c-.18,0-.36-.04-.52-.14-.33-.19-.54-.54-.54-.92v-14.03c0-.58.47-1.06,1.06-1.06s1.06.47,1.06,1.06v12.15l21.38-13.06c.33-.2.73-.21,1.07-.02.33.19.54.54.54.92v14.03c0,.58-.47,1.06-1.06,1.06s-1.06-.47-1.06-1.06v-12.15l-21.38,13.05c-.17.1-.36.15-.55.15Z"/>
                      <path class="cls-37" d="m273.28,59.04c-.18,0-.36-.04-.52-.14-.33-.19-.54-.54-.54-.92v-14.03c0-.58.47-1.06,1.06-1.06s1.06.47,1.06,1.06v12.15l21.38-13.06c.32-.2.73-.21,1.07-.02.33.19.54.54.54.92v14.03c0,.58-.47,1.06-1.06,1.06s-1.06-.47-1.06-1.06v-12.15l-21.38,13.05c-.17.1-.36.15-.55.15Z"/>
                    </g>
                    <path class="cls-37" d="m141.11,59.04c-.2,0-.4-.06-.57-.17l-20.22-12.99v12.1c0,.58-.47,1.06-1.06,1.06s-1.06-.47-1.06-1.06v-14.03c0-.39.21-.74.55-.93.34-.19.75-.17,1.08.04l20.22,12.99v-12.1c0-.58.47-1.06,1.06-1.06s1.05.47,1.05,1.06v14.03c0,.39-.21.74-.55.93-.16.08-.33.13-.51.13Z"/>
                  </g>
                  <g>
                    <g>
                      <g>
                        <path class="cls-37" d="m181.26,203.34h-17.25c-.38,0-.73-.2-.92-.53-.19-.33-.18-.74.01-1.06l16.29-27.21h-15.38c-.58,0-1.06-.47-1.06-1.06s.47-1.05,1.06-1.05h17.25c.38,0,.73.2.92.53.19.33.18.74-.01,1.06l-16.29,27.2h15.38c.58,0,1.05.47,1.05,1.06s-.47,1.06-1.05,1.06Z"/>
                        <path class="cls-37" d="m181.26,145.73h-17.25c-.38,0-.73-.21-.92-.54-.19-.33-.18-.74.01-1.06l16.29-27.21h-15.38c-.58,0-1.06-.47-1.06-1.06s.47-1.06,1.06-1.06h17.25c.38,0,.73.2.92.54.19.33.18.74-.01,1.06l-16.29,27.21h15.38c.58,0,1.05.47,1.05,1.06s-.47,1.06-1.05,1.06Z"/>
                        <path class="cls-37" d="m181.26,174.53h-17.25c-.38,0-.73-.2-.92-.54-.19-.33-.18-.74.01-1.06l16.29-27.21h-15.38c-.58,0-1.06-.47-1.06-1.06s.47-1.06,1.06-1.06h17.25c.38,0,.73.2.92.54.19.33.18.74-.01,1.06l-16.29,27.21h15.38c.58,0,1.05.47,1.05,1.05s-.47,1.06-1.05,1.06Z"/>
                        <path class="cls-37" d="m181.26,116.93h-17.25c-.38,0-.73-.2-.92-.53-.19-.33-.18-.74.01-1.06l16.29-27.21h-15.38c-.58,0-1.06-.47-1.06-1.06s.47-1.06,1.06-1.06h17.25c.38,0,.73.2.92.53.19.33.18.74-.01,1.06l-16.29,27.21h15.38c.58,0,1.05.47,1.05,1.06s-.47,1.06-1.05,1.06Z"/>
                      </g>
                      <g>
                        <path class="cls-37" d="m181.26,318.55h-17.25c-.38,0-.73-.2-.92-.53-.19-.33-.18-.74.01-1.06l16.29-27.21h-15.38c-.58,0-1.06-.47-1.06-1.06s.47-1.06,1.06-1.06h17.25c.38,0,.73.2.92.54.19.33.18.74-.01,1.06l-16.29,27.21h15.38c.58,0,1.05.47,1.05,1.06s-.47,1.06-1.05,1.06Z"/>
                        <path class="cls-37" d="m181.26,260.95h-17.25c-.38,0-.73-.2-.92-.54-.19-.33-.18-.74.01-1.06l16.29-27.2h-15.38c-.58,0-1.06-.47-1.06-1.06s.47-1.06,1.06-1.06h17.25c.38,0,.73.2.92.53.19.33.18.74-.01,1.06l-16.29,27.21h15.38c.58,0,1.05.47,1.05,1.06s-.47,1.06-1.05,1.06Z"/>
                        <path class="cls-37" d="m181.26,289.75h-17.25c-.38,0-.73-.2-.92-.53-.19-.33-.18-.74.01-1.06l16.29-27.21h-15.38c-.58,0-1.06-.47-1.06-1.06s.47-1.06,1.06-1.06h17.25c.38,0,.73.2.92.53.19.33.18.74-.01,1.06l-16.29,27.21h15.38c.58,0,1.05.47,1.05,1.06s-.47,1.06-1.05,1.06Z"/>
                        <path class="cls-37" d="m181.26,232.14h-17.25c-.38,0-.73-.2-.92-.54-.19-.33-.18-.74.01-1.06l16.29-27.21h-15.38c-.58,0-1.06-.47-1.06-1.06s.47-1.06,1.06-1.06h17.25c.38,0,.73.2.92.54.19.33.18.74-.01,1.06l-16.29,27.21h15.38c.58,0,1.05.47,1.05,1.06s-.47,1.06-1.05,1.06Z"/>
                      </g>
                      <path class="cls-37" d="m181.26,347.36h-17.25c-.38,0-.73-.21-.92-.54-.19-.33-.18-.74.01-1.06l16.29-27.21h-15.38c-.58,0-1.06-.47-1.06-1.06s.47-1.06,1.06-1.06h17.25c.38,0,.73.2.92.54.19.33.18.74-.01,1.06l-16.29,27.21h15.38c.58,0,1.05.47,1.05,1.06s-.47,1.06-1.05,1.06Z"/>
                    </g>
                    <path class="cls-37" d="m181.26,347.34h-17.25c-.58,0-1.06-.47-1.06-1.06V57.99c0-.58.47-1.06,1.06-1.06h17.25c.58,0,1.05.47,1.05,1.06v288.3c0,.58-.47,1.06-1.05,1.06Zm-16.19-2.11h15.14V59.04h-15.14v286.19Z"/>
                  </g>
                  <g>
                    <path class="cls-37" d="m181.26,59.04h-17.25c-.58,0-1.06-.47-1.06-1.06V3.61c0-.52.38-.96.9-1.04.51-.08,1.01.23,1.17.73l17.25,54.38c.1.32.04.67-.15.94-.2.27-.51.43-.85.43Zm-16.19-2.11h14.75l-14.75-46.5v46.5Z"/>
                    <path class="cls-37" d="m181.26,59.04c-.3,0-.61-.13-.82-.38l-17.25-20.94c-.26-.32-.31-.75-.14-1.12.17-.37.55-.6.95-.6h10.61c.58,0,1.06.47,1.06,1.06s-.47,1.06-1.06,1.06h-8.37l15.82,19.21c.37.45.31,1.12-.14,1.49-.2.16-.43.24-.67.24Z"/>
                  </g>
                </g>
                <g>
                  <path class="cls-36" d="m104.61,57.15c0,2.45-1.99,4.44-4.44,4.44s-4.44-1.99-4.44-4.44,1.99-4.44,4.44-4.44,4.44,1.99,4.44,4.44Z"/>
                  <path class="cls-36" d="m277.61,43.16c0,2.45-1.99,4.44-4.44,4.44s-4.44-1.99-4.44-4.44,1.99-4.45,4.44-4.45,4.44,1.99,4.44,4.45Z"/>
                  <path class="cls-36" d="m167.75,4.44c0,2.46-1.99,4.44-4.44,4.44s-4.44-1.99-4.44-4.44,1.99-4.44,4.44-4.44,4.44,1.99,4.44,4.44Z"/>
                </g>
              </g>
              <g>
                <path class="cls-31" d="m197.01,81.43c0,1.53-1.2,2.78-2.68,2.78s-2.68-1.24-2.68-2.78,1.2-2.77,2.68-2.77,2.68,1.24,2.68,2.77Z"/>
                <g>
                  <g>
                    <path class="cls-24" d="m151.93,84.81l2.01-15.64,1.39-15.75c.28-3.24,2.87-5.68,6-5.68h22.71c2.32,0,4.42,1.51,5.23,3.76l3.89,10.84c1.07,2.97,1.61,6.09,1.61,9.27v12.56c0,.35-.27.63-.6.63l-41.62.72h0c-.17,0-.34-.08-.46-.21-.12-.14-.17-.32-.15-.51Z"/>
                    <g>
                      <g>
                        <path class="cls-22" d="m185.83,53.06l4.37,12.93c.07.22.04.45-.09.64-.13.19-.33.29-.55.29h-17.95v-15.61h11.84c1.07,0,2.03.7,2.38,1.75Z"/>
                        <g class="cls-39">
                          <g>
                            <g>
                              <path class="cls-31" d="m181.44,50.67l9.03,14.2h0l.31.91c.29.87-.33,1.77-1.21,1.77h-4.64l-9.96-16.88h6.48Z"/>
                              <polygon class="cls-31" points="172.42 50.67 181.65 67.56 179.59 67.56 171 51.98 171 50.67 172.42 50.67"/>
                            </g>
                            <g>
                              <path class="cls-20" d="m181.44,50.67l9.03,14.2h0l.31.91c.29.87-.33,1.77-1.21,1.77h-4.64l-9.96-16.88h6.48Z"/>
                              <polygon class="cls-20" points="172.42 50.67 181.65 67.56 179.59 67.56 171 51.98 171 50.67 172.42 50.67"/>
                            </g>
                          </g>
                        </g>
                      </g>
                      <g>
                        <path class="cls-22" d="m191.69,71.2v8.5c0,.78-.62,1.42-1.37,1.42h-11.46l-1.94-3.79c-.98-1.92-2.56-3.49-4.46-4.42l-.85-.42v-2.51l18.96.05c.62,0,1.12.52,1.12,1.17Z"/>
                        <g>
                          <g class="cls-33">
                            <g>
                              <polygon class="cls-42" points="182.45 69.34 189.69 81.76 187.5 81.76 180.19 69.37 182.45 69.34"/>
                              <path class="cls-42" d="m192.3,71.2v8.5c0,.17-.02.33-.06.49l-6.61-10.8h4.94c.96.02,1.74.82,1.74,1.82Z"/>
                            </g>
                          </g>
                          <g class="cls-29">
                            <g>
                              <polygon class="cls-20" points="182.45 69.34 189.69 81.76 187.5 81.76 180.19 69.37 182.45 69.34"/>
                              <path class="cls-20" d="m192.3,71.2v8.5c0,.17-.02.33-.06.49l-6.61-10.8h4.94c.96.02,1.74.82,1.74,1.82Z"/>
                            </g>
                          </g>
                        </g>
                      </g>
                      <g>
                        <path class="cls-22" d="m158.94,53.78c.13-1.41,1.26-2.47,2.63-2.47h6.37v23.64l-10.56-5.23,1.56-15.94Z"/>
                        <g class="cls-34">
                          <path class="cls-20" d="m161.57,50.67l6.99,19.18v4.87l-8.65-23.57c.49-.3,1.05-.48,1.66-.48Z"/>
                        </g>
                      </g>
                    </g>
                  </g>
                  <path class="cls-36" d="m194.77,84.18h0c-.27,2.65-3.79,4.3-6.58,4.3h-34.04c-2.65,0-4.8-2.23-4.8-4.97v-6.18c0-4.69,1.31-8.49,5.84-8.49,0,0,.68.19,1.46.54l14.01,6.4c1.4.64,2.58,1.71,3.38,3.06l2.51,4.26c.39.66,1.09,1.07,1.84,1.07h16.38Z"/>
                </g>
              </g>
              <g>
                <polygon class="cls-37" points="303.04 161.26 286.22 150.79 269.4 161.26 268.56 159.92 286.22 148.92 303.87 159.92 303.04 161.26"/>
                <g>
                  <path class="cls-24" d="m296.41,138.33h-20.38V61.33h20.38v76.99Zm-18.89-1.49h17.39V62.83h-17.39v74Z"/>
                  <g>
                    <path class="cls-24" d="m286.15,153.78c-2.45,0-4.61-1.48-5.5-3.76l2.46-.96c.49,1.26,1.69,2.08,3.05,2.08,1.8,0,3.27-1.46,3.27-3.27s-1.47-3.27-3.27-3.27v-2.64c3.26,0,5.91,2.65,5.91,5.91s-2.65,5.91-5.91,5.91Z"/>
                    <polygon class="cls-36" points="296.86 140.11 286.14 144.6 275.41 140.11 275.41 135.95 296.86 135.95 296.86 140.11"/>
                    <g>
                      <path class="cls-18" d="m283.02,135.95c0,1.72-1.4,3.12-3.12,3.12s-3.12-1.4-3.12-3.12,1.4-3.12,3.12-3.12,3.12,1.4,3.12,3.12Z"/>
                      <path class="cls-36" d="m281.53,135.95c0,.9-.73,1.63-1.63,1.63s-1.63-.73-1.63-1.63.73-1.63,1.63-1.63,1.63.73,1.63,1.63Z"/>
                    </g>
                    <g>
                      <path class="cls-18" d="m295.66,135.95c0,1.72-1.4,3.12-3.12,3.12s-3.12-1.4-3.12-3.12,1.4-3.12,3.12-3.12,3.12,1.4,3.12,3.12Z"/>
                      <path class="cls-36" d="m294.16,135.95c0,.9-.73,1.63-1.63,1.63s-1.63-.73-1.63-1.63.73-1.63,1.63-1.63,1.63.73,1.63,1.63Z"/>
                    </g>
                  </g>
                  <g>
                    <path class="cls-36" d="m300.49,60.4c0,1.33-1.08,2.41-2.41,2.41h-23.17c-1.33,0-2.41-1.08-2.41-2.41h0c0-1.33,1.08-2.41,2.41-2.41h23.17c1.33,0,2.41,1.08,2.41,2.41h0Z"/>
                    <g>
                      <path class="cls-18" d="m283.02,62.81c0,1.72-1.4,3.12-3.12,3.12s-3.12-1.4-3.12-3.12,1.4-3.12,3.12-3.12,3.12,1.4,3.12,3.12Z"/>
                      <path class="cls-36" d="m281.53,62.81c0,.9-.73,1.63-1.63,1.63s-1.63-.73-1.63-1.63.73-1.63,1.63-1.63,1.63.73,1.63,1.63Z"/>
                    </g>
                    <g>
                      <path class="cls-18" d="m295.66,62.81c0,1.72-1.4,3.12-3.12,3.12s-3.12-1.4-3.12-3.12,1.4-3.12,3.12-3.12,3.12,1.4,3.12,3.12Z"/>
                      <path class="cls-36" d="m294.16,62.81c0,.9-.73,1.63-1.63,1.63s-1.63-.73-1.63-1.63.73-1.63,1.63-1.63,1.63.73,1.63,1.63Z"/>
                    </g>
                  </g>
                </g>
                <rect class="cls-37" x="294.04" y="145.07" width="1.58" height="20.31" transform="translate(7.2 323.42) rotate(-58.08)"/>
              </g>
              <g>
                <path class="cls-36" d="m196.7,346.67c0,1.18-.96,2.13-2.15,2.13h-43.54c-1.19,0-2.15-.95-2.15-2.13v-6.96c0-1.18.96-2.13,2.15-2.13h43.54c1.19,0,2.15.95,2.15,2.13v6.96Z"/>
                <g>
                  <g>
                    <path class="cls-18" d="m157.44,351.94c0,1.73-1.4,3.14-3.13,3.14s-3.14-1.4-3.14-3.14,1.4-3.14,3.14-3.14,3.13,1.4,3.13,3.14Z"/>
                    <path class="cls-36" d="m156.16,351.94c0,1.02-.83,1.85-1.85,1.85s-1.85-.83-1.85-1.85.83-1.85,1.85-1.85,1.85.83,1.85,1.85Z"/>
                  </g>
                  <g>
                    <path class="cls-18" d="m195.06,351.94c0,1.73-1.4,3.14-3.14,3.14s-3.14-1.4-3.14-3.14,1.4-3.14,3.14-3.14,3.14,1.4,3.14,3.14Z"/>
                    <path class="cls-36" d="m193.78,351.94c0,1.02-.83,1.85-1.85,1.85s-1.85-.83-1.85-1.85.83-1.85,1.85-1.85,1.85.83,1.85,1.85Z"/>
                  </g>
                  <g>
                    <path class="cls-18" d="m175.59,351.94c0,1.73-1.4,3.14-3.13,3.14s-3.14-1.4-3.14-3.14,1.4-3.14,3.14-3.14,3.13,1.4,3.13,3.14Z"/>
                    <path class="cls-36" d="m174.31,351.94c0,1.02-.83,1.85-1.85,1.85s-1.85-.83-1.85-1.85.83-1.85,1.85-1.85,1.85.83,1.85,1.85Z"/>
                  </g>
                </g>
              </g>
            </g>
            <path class="cls-35" d="m309.34,194.26v7.33h-47.14v-42.06h47.14v34.72Zm-13.83-3.17v-21.05h-19.5v21.05h19.5Z"/>
          </g>
        </g>
      </g>
      <g>
        <g>
          <g>
            <g>
              <path class="cls-23" d="m333.81,238.76l15.1,15.08,1.38-.72-15.67-15.39-.38-.21v.03c-.05.16-.1.33-.16.49l-.05.1s-.06.2-.22.61Z"/>
              <path class="cls-23" d="m348.91,253.84l-.52.52,19.2,18.9c3.42,1.61,6.32,3,8.72,4.31l-25.5-24.99-.86.2-1.04,1.06Z"/>
            </g>
            <g>
              <path class="cls-45" d="m318.72,250.74c.57,0,1.09.16,1.54.44,0,0,2.44,1.14,6.34,2.93,9.77,4.56,28.67,13.35,40.98,19.15,3.42,1.61,6.32,3,8.39,3.97,1.15.57,2.05,1.01,2.62,1.29,6.81,3.45,5.86,4.32,4.92,6.05-1.04-1.64-2.85-2.73-4.93-2.73-3.22,0-5.83,2.62-5.83,5.83,0,.36.03.73.09,1.07l.52,5.09-50.02-33.51v-.02l-6.65-4.45c-.57-.55-.93-1.32-.93-2.18,0-.41.08-.8.24-1.15.44-1.07,1.5-1.81,2.73-1.81Zm0,3.7c.41,0,.74-.33.74-.74s-.33-.74-.74-.74-.74.33-.74.74.33.74.74.74Zm49.76,28.41c.82,0,1.48-.66,1.48-1.48s-.66-1.48-1.48-1.48-1.48.66-1.48,1.48.66,1.48,1.48,1.48Z"/>
              <path class="cls-23" d="m318.72,251.78c-1.07,0-1.93.86-1.93,1.92s.86,1.93,1.93,1.93,1.92-.86,1.92-1.93-.86-1.92-1.92-1.92Z"/>
              <path class="cls-23" d="m367.89,279.4c-1.42,0-2.56,1.15-2.56,2.57s1.15,2.56,2.56,2.56,2.57-1.15,2.57-2.56-1.15-2.57-2.57-2.57Z"/>
            </g>
            <g>
              <path class="cls-45" d="m317.24,247.29s2.52-1.81,5.31-4.16c2.79-2.35,5.82-5.22,6.84-7.3.43-.82,1.29-1.39,2.29-1.39,1.44,0,2.6,1.17,2.6,2.6,0,.16-.02.33-.05.49v.03l-.44,1.18.02.02c-.64,1.62-2.66,6.51-7.2,15.35-3.9-1.8-6.34-2.93-6.34-2.93-.46-.28-.98-.44-1.54-.44-1.23,0-2.29.74-2.73,1.81l-1.32-.49c1.58-2.93,2.57-4.78,2.57-4.78Zm14.44-9.88c.2,0,.38-.16.38-.36s-.17-.38-.38-.38-.36.17-.36.38.16.36.36.36Z"/>
              <path class="cls-44" d="m331.68,236.66c-.2,0-.36.17-.36.38s.16.36.36.36.38-.16.38-.36-.17-.38-.38-.38Z"/>
              <path class="cls-23" d="m331.65,238.53c.86,0,1.55-.69,1.55-1.55s-.7-1.55-1.55-1.55-1.55.69-1.55,1.55.7,1.55,1.55,1.55Z"/>
              <g>
                <polygon class="cls-23" points="292.41 293.32 287.16 302.62 287.86 303.05 288.44 303.37 293.7 294.04 293.06 293.68 292.41 293.32"/>
                <rect class="cls-23" x="290.85" y="289.51" width="8.56" height=".79" transform="translate(-102.36 404.55) rotate(-60.58)"/>
              </g>
              <g>
                <path class="cls-45" d="m289.95,303.37l-1.07,1.65s5.79,7.9,6.29,8.51h.02c-.13-1.55-.22-3.11-.28-4.68,0-.49.1-.96.27-1.39l-5.22-4.1Z"/>
                <path class="cls-45" d="m289.57,304.09l3.83,2.35s19.51-26.91,28.77-43.97c.39-.73.79-1.44,1.17-2.13v-.02l-6.65-4.45c-.57-.55-.93-1.32-.93-2.18,0-.41.08-.8.24-1.15l-1.32-.49c-4.38,8.1-13.27,24.59-18.18,33.75,0,0,.39.1.77.43.65.55,1.23,1.75-.16,4.24-2.22,3.97-7.54,13.61-7.54,13.61Z"/>
                <path class="cls-45" d="m287.16,300.85c-.51.38-.61,1.1-.23,1.61l4.7,6.24c.38.51,1.1.61,1.61.23h0c.51-.38.61-1.1.23-1.61l-4.7-6.24c-.38-.51-1.1-.61-1.61-.23h0Z"/>
              </g>
            </g>
            <g>
              <path class="cls-23" d="m303.58,308.14l-2.52-1.84c-.61-.6-1.45-1.01-2.36-1.04-.06-.02-.13-.02-.19-.02-1.51,0-2.79.91-3.34,2.22-.17.42-.27.9-.27,1.39.06,1.58.16,3.14.28,4.68.08,1.31.19,2.6.3,3.85l5.99-7.14,2.32,1.68c-.39-1.2-.45-2.52-.21-3.78Zm-5.07,2.1c-.77,0-1.39-.62-1.39-1.39s.61-1.39,1.39-1.39,1.39.63,1.39,1.39-.61,1.39-1.39,1.39Z"/>
              <path class="cls-45" d="m326.46,327.8l-24.81-17.97-6.17,7.55c.09,1.05.19,2.06.3,3.06.05.5.11,1.01.16,1.48.39,3.56.82,6.61,1.12,8.72.1.55.17,1.04.24,1.47.17,1.12.28,1.75.28,1.75,1.94,2.06,4.08,3.66,6.31,4.85.69.38,1.42.73,2.13,1.02,9.65,4.12,20.29,1.64,23.88-1.34,1.58-1.29,3.52-3.39,5.39-5.63h.02c.52-.61,1.04-1.26,1.55-1.89,1.65-2.03,3.35-4.45,4.42-5.87l-14.8,2.79Z"/>
              <g>
                <path class="cls-23" d="m343.9,323.23c.14.73-.34,1.44-1.07,1.58l-15.83,3.06c-.73.14-1.44-.34-1.58-1.07h0c-.14-.73.34-1.44,1.07-1.58l15.83-3.06c.73-.14,1.44.34,1.58,1.07h0Z"/>
                <path class="cls-23" d="m327.77,327.32c-.43.61-1.28.75-1.88.31l-26.95-19.59c-.61-.43-.75-1.28-.31-1.88h0c.43-.61,1.28-.75,1.88-.31l26.95,19.59c.61.43.75,1.28.31,1.88h0Z"/>
              </g>
              <path class="cls-20" d="m298.51,307.47c-.77,0-1.39.63-1.39,1.39s.61,1.39,1.39,1.39,1.39-.62,1.39-1.39-.61-1.39-1.39-1.39Z"/>
            </g>
          </g>
          <g>
            <polygon class="cls-24" points="411.06 335.4 375.8 335.4 374.27 329.33 412.6 329.33 411.06 335.4"/>
            <g>
              <path class="cls-23" d="m440.76,355.4h0c-35.98.93-57.63.93-93.61,0h-.02c-8.74-.23-12.49-4.83-12.49-10.43s3.75-10.21,12.49-10.44h.02c35.98-.93,57.64-.93,93.61,0h0c8.74.23,12.12,4.83,12.12,10.44h0c0,5.6-3.38,10.21-12.12,10.43Z"/>
              <rect class="cls-18" x="349" y="340.78" width="88.28" height="8.38"/>
              <path class="cls-36" d="m353.14,344.97c0,3.7-3,6.69-6.69,6.69s-6.69-2.99-6.69-6.69,2.99-6.69,6.69-6.69,6.69,2.99,6.69,6.69Z"/>
              <path class="cls-18" d="m351.18,344.97c0,2.61-2.12,4.73-4.73,4.73s-4.73-2.12-4.73-4.73,2.12-4.73,4.73-4.73,4.73,2.12,4.73,4.73Z"/>
              <path class="cls-36" d="m447.49,344.97c0,3.63-2.94,6.57-6.57,6.57s-6.57-2.94-6.57-6.57,2.94-6.57,6.57-6.57,6.57,2.94,6.57,6.57Z"/>
              <path class="cls-18" d="m445.57,344.97c0,2.56-2.08,4.64-4.64,4.64s-4.64-2.08-4.64-4.64,2.08-4.64,4.64-4.64,4.64,2.08,4.64,4.64Z"/>
            </g>
            <g>
              <g>
                <path class="cls-23" d="m423.51,302.35l-2.02-22.07c-.37-4.05-3.76-7.15-7.83-7.15h-32.98c-3.01,0-5.71,1.87-6.75,4.7l-5.65,15.2c-1.51,4.05-2.28,8.35-2.28,12.67v17.59l60.42,1-2.92-21.96Z"/>
                <g>
                  <g>
                    <path class="cls-22" d="m399.63,300h-26.95c-1.29,0-2.19-1.27-1.76-2.48l6.34-18.13c.64-1.83,2.36-3.05,4.3-3.05h18.08v23.66Z"/>
                    <path class="cls-20" d="m384.47,276.35l-13.11,19.9h0l-.45,1.27c-.42,1.21.48,2.48,1.76,2.48h6.73l14.46-23.66h-9.41Z"/>
                    <polygon class="cls-20" points="397.56 276.35 384.16 300 387.15 300 399.63 278.18 399.63 276.35 397.56 276.35"/>
                  </g>
                  <g>
                    <path class="cls-22" d="m399.63,302.51v4.98l-1.75.82c-2.6,1.23-4.73,3.26-6.07,5.8l-3.06,5.79h-17.17c-1.59,0-2.88-1.29-2.88-2.88v-11.91c0-1.39,1.13-2.52,2.52-2.53l28.42-.08Z"/>
                    <polygon class="cls-20" points="383 302.51 372.49 319.91 375.67 319.91 386.28 302.54 383 302.51"/>
                    <path class="cls-20" d="m368.69,305.11v11.91c0,.24.04.47.09.69l9.59-15.14h0l-7.17.02c-1.39,0-2.52,1.13-2.52,2.53Z"/>
                  </g>
                  <g>
                    <path class="cls-22" d="m420.15,302.56l-2.14-21.95c-.23-2.42-2.27-4.26-4.7-4.26h-10.14v35.52l16.97-9.3Z"/>
                    <path class="cls-20" d="m413.32,276.35l-10.14,26.87v6.83l12.55-33.03c-.71-.42-1.53-.67-2.41-.67Z"/>
                  </g>
                </g>
              </g>
              <path class="cls-45" d="m366.01,323.3h0c1.7,3.67,5.38,6.03,9.43,6.03h60.6c3.85,0,6.97-3.12,6.97-6.97v-8.67c0-6.57-5.32-11.9-11.89-11.9h-7.34c-1.25,0-2.48.26-3.62.76l-20.34,8.97c-2.03.9-3.74,2.39-4.9,4.29l-3.65,5.98c-.57.93-1.58,1.5-2.68,1.5h-22.58Z"/>
            </g>
          </g>
        </g>
        <g>
          <path class="cls-32" d="m432.98,306.57v18.69c0,.94.74,1.71,1.64,1.71s1.65-.76,1.65-1.71v-18.69c0-.94-.74-1.71-1.65-1.71s-1.64.76-1.64,1.71Z"/>
          <path class="cls-32" d="m425.22,306.57v18.69c0,.94.74,1.71,1.65,1.71s1.65-.76,1.65-1.71v-18.69c0-.94-.74-1.71-1.65-1.71s-1.65.76-1.65,1.71Z"/>
          <path class="cls-32" d="m417.46,307.97v17.29c0,.94.74,1.71,1.65,1.71s1.65-.76,1.65-1.71v-17.29c0-.94-.74-1.71-1.65-1.71s-1.65.76-1.65,1.71Z"/>
          <path class="cls-32" d="m409.71,312.42v12.84c0,.94.73,1.71,1.64,1.71s1.65-.76,1.65-1.71v-12.84c0-.94-.74-1.71-1.65-1.71s-1.64.77-1.64,1.71Z"/>
          <path class="cls-32" d="m401.94,316.77v8.49c0,.94.74,1.71,1.65,1.71s1.65-.76,1.65-1.71v-8.49c0-.94-.74-1.71-1.65-1.71s-1.65.76-1.65,1.71Z"/>
        </g>
        <polygon class="cls-32" points="326.6 254.11 323.34 260.33 324.47 261.1 327.11 254.35 326.6 254.11"/>
        <polygon class="cls-32" points="290.2 302.98 293.56 306.21 294.14 305.42 290.38 302.62 290.2 302.98"/>
      </g>
    </g>
    <g>
      <g>
        <g>
          <g>
            <path class="cls-15" d="m70.34,233.61c1.38,1.63,2.85,3.17,4.29,4.71-.45.69-1.1,1.04-1.35,1.85-.29.96-.56,2.38-.48,3.57.1,1.54.08,2.6-.31,4.37-.26.58-.62.51-.69.49-1.31-3.46-2.51-7.66-3.92-11.55-.03-.08-.69-1.67-.69-1.67.15-.18,1.36-.93,1.57-1.04.57-.33.99-.56,1.57-.73"/>
            <path class="cls-13" d="m71.81,248.6l-4.61-13.21c1.48.75,6.03,9.89,4.61,13.21"/>
            <path class="cls-12" d="m70.34,233.61c.59.52,2.69,3.26,4.29,4.71-1.97-.85-3.66-2.59-4.29-4.71"/>
          </g>
          <g>
            <path class="cls-1" d="m58.86,172.82c5.05.22,8.23,4.91,11.32,8.63,5.27,6.34,10.48,12.2,15.57,19,1.24,1.66,2.42,3.39,3.55,5.16,1.56,2.44,3.37,5.05,3.16,8.65-.16,2.71-1.54,5.1-2.89,7.36-3.22,5.39-7.72,10.07-11.9,15.03-.29.35-.7.83-1.24,1.47-.23.28-1.26,1.47-1.24,1.47-.29.04-2.01-1.29-2.52-1.7-2.41-1.91-4.68-3.69-7.03-5.41,3.62-7.11,7.61-13.95,10.76-21.4-1.93-2.5-3.99-4.47-6.25-7.1-1.27-1.47-3.12-3.65-4.59-5.43-.46-.55-1.24-1.37-1.39-1.83-.26-.8-.09-2.11-.13-3.17-.13-2.9-.42-6.35-1.13-9.55-.94-4.24-2.49-7.7-4.07-11.19Z"/>
            <path class="cls-35" d="m64.06,193.56c.04,1.05-.13,2.37.13,3.17.15.45.93,1.27,1.39,1.83,1.48,1.78,3.32,3.96,4.59,5.43,2.26,2.62,4.32,4.6,6.25,7.1-3.15,7.44-7.14,14.29-10.76,21.4.12.08.23.17.34.26.66-.59,1.37-1.13,2.13-1.62,3.55-6.92,7.41-13.6,10.49-20.86-1.93-2.5-3.99-4.47-6.25-7.1-1.27-1.47-3.12-3.65-4.59-5.43-.46-.55-1.24-1.37-1.39-1.83-.26-.8-.09-2.11-.14-3.17-.12-2.9-.42-6.35-1.13-9.54-.81-3.64-2.06-6.7-3.4-9.71-.89-.37-1.83-.6-2.86-.65,1.58,3.5,3.13,6.95,4.07,11.19.71,3.19,1,6.64,1.13,9.55Z"/>
            <path class="cls-11" d="m64.74,194.46c.04,1.1-.17,2.47.13,3.31.17.47,1.07,1.32,1.6,1.9,1.08,1.18,3.51,4.09,3.51,4.09,1.39-2.04,3.58-27.36-9.68-30.74,1.81,3.64,2.15,7.05,3.21,11.48.8,3.33,1.11,6.93,1.23,9.97Z"/>
            <polygon class="cls-35" points="78.4 210.75 79.87 207.45 76.52 210.86 78.4 210.75"/>
          </g>
        </g>
        <g>
          <g>
            <g>
              <path class="cls-15" d="m91.54,364.12s2.01,9.89,4.01,11.79c0,0-3.79,2.73-11.36-2.06l-2.54-8.87,9.89-.87Z"/>
              <path class="cls-13" d="m81.66,364.99c1.14,2.17,7.63,2.77,10.09.42l-10.09-.42"/>
            </g>
            <path class="cls-3" d="m82.52,368.8c3.92-.05,7.81-.06,11.52.1.41-.06.13.56.21.81.83,2.15,3.2,3.74,5.5,4.61,3.51,1.34,7.9,1.61,7.87,6.21-.24.37-1.05.21-1.64.22-8.61.08-17.1-.13-25.74-.06.07-2.16.27-4.09.7-5.98.42-1.9.85-3.72,1.39-5.58,0-.17.07-.26.2-.31"/>
          </g>
          <g>
            <g>
              <path class="cls-15" d="m46.21,364.18s2.01,9.89,4.01,11.79c0,0-3.79,2.74-11.36-2.06l-2.54-8.87,9.89-.87Z"/>
              <path class="cls-13" d="m36.32,365.05c1.15,2.17,7.49,2.43,10.09.42l-10.09-.42"/>
            </g>
            <path class="cls-3" d="m37.19,368.86c3.92-.05,7.81-.06,11.52.1.4-.06.13.56.21.81.83,2.15,5.57,3.73,7.86,4.6,3.51,1.34,8.75,1.61,8.72,6.21-.24.37-1.05.21-1.64.22-8.61.08-18.89.17-27.54.23,0,0-.18-6.18.67-11.86.03-.17.07-.26.2-.31"/>
          </g>
          <g>
            <path class="cls-26" d="m92.65,365.18c-2.12-12.4-4.5-24.95-6.53-37.63-1.01-6.3-2-12.62-3.16-18.92-1.15-6.32-2-12.7-3.16-18.99-1.11-6.08-2.26-12.38-3.45-18.64-2.39-12.6-4.3-24.94-8.49-35.69-1.07-2.75-2.33-5.4-3.96-7.67l-31.82.04c-1.44,2.2-2.67,4.6-3.46,7.47-1.46,5.28-1.8,11.53-1.8,18.28,0,6.59.14,13.18.46,19.64.96,19.31,2.65,37.57,4.22,56.2,1.01,11.99,2.09,24,2.68,36.21l14.28-.02c0-.29,0-.63-.01-.94-.02-.51,0-1.12,0-1.65-.01-7.69-.24-15.33-.1-22.73.24-12.79.19-26.05.53-38.64.29-10.75.65-21.3,1.27-31.48.13-2.07.13-4.15.43-6.17,4.48,17.7,8.92,35.11,13.83,52.18,4.84,16.82,10.63,33.05,15.79,49.39l12.48-.02s.02-.09-.03-.22Z"/>
            <path class="cls-43" d="m80.2,365.42h3.99c-.12-.36-.3-.82-.41-1.23-1.26-4.52-2.46-9.38-3.59-13.62-1.45-5.47-2.75-10.5-4.1-15.62-2.76-10.54-5.53-20.75-8.2-31.25-5.15-20.31-10.63-40.22-15.88-60.49-.29-1.12-.37-2.04-1.09-1.58-.27.33-.03,1.7,0,2.44.04.98.03,1.93,0,2.72-.12,3.83-.2,7.02-.35,10.54-.08,1.76-.24,4.85,0,6.52,4.48,17.7,8.92,35.11,13.83,52.18,4.84,16.82,10.63,33.05,15.79,49.39Z"/>
            <path class="cls-43" d="m33.36,314.22c-.54-6.46-.92-12.95-1.23-19.61-.3-6.5-.62-13.25-.63-20.07,0-3.43,0-6.91-.01-10.34,0-3.41.25-6.78.24-10.11,0-3.17.18-6.6.42-9.89.45-6.13,1.13-11.57,2.59-16.53h-2.64c-1.44,2.2-2.67,4.6-3.46,7.47-1.46,5.28-1.8,11.53-1.8,18.28,0,6.59.14,13.18.46,19.64.96,19.31,2.65,37.57,4.22,56.2,1.01,11.99,2.09,24,2.68,36.21h3.76c-1.56-10.35-2.48-20.99-3.28-31.8-.48-6.45-.78-13.05-1.32-19.46Z"/>
          </g>
        </g>
        <g>
          <path class="cls-1" d="m69.03,236.35c-13.49,2.78-30.16,2.98-42.29.7,1.39-13.68-.8-29.51-1.58-42.9-.82-14.05,6.1-23.21,18.94-25.51,2.64-.47,6.49-.52,8.91.28,3.25,1.07,7.51,4.77,9.33,7.57,2.26,3.47,3.26,8.03,3.69,13.25.41,4.97-.27,10.25-.03,15.29.25,5.26,1.52,10.51,2.23,15.42.79,5.49,1.08,10.87.8,15.9Z"/>
          <g>
            <g>
              <path class="cls-45" d="m45.77,184.17c-1.21-4.97-2.25-11.06-5.06-14.7-11.28,2.85-16.3,12.42-15.55,25.71.78,13.93,2.97,30.4,1.58,44.64,7.62,1.49,17.02,1.96,26.3,1.39-.98-12.68-2.43-25.85-4.08-38.05-.89-6.53-1.77-13.13-3.19-18.98Z"/>
              <path class="cls-21" d="m28.26,195.17c-.69-12.24,3.52-21.32,13.01-24.9-.18-.28-.36-.54-.56-.8-11.28,2.85-16.3,12.42-15.55,25.71.78,13.93,2.97,30.4,1.58,44.64,5.98,1.17,13.07,1.71,20.34,1.61-6.17-.07-12.11-.61-17.24-1.61,1.39-14.24-.8-30.71-1.58-44.64Z"/>
            </g>
            <path class="cls-45" d="m69.79,222.54c-.78-5.11-2.19-10.58-2.46-16.05-.26-5.24.49-10.74.04-15.91-.48-5.43-1.21-10.2-3.7-13.81-1.95-2.83-6.82-6.51-10.36-7.75,6.79,11.11,9.36,33.72,5.66,71.72,4.03-.39,7.98-.95,11.71-1.67.31-5.23,0-10.83-.88-16.54Z"/>
          </g>
          <g>
            <g>
              <path class="cls-15" d="m55.88,165.83l.18,5.02c-1.89,4.77-8.86,4.64-11.9,2.48-1.98-1.41-1.72-2.56-1.79-4.62-.09-2.78-.2-5.64-.19-8.33-.98-.02-2.55-.65-3.27-2-.54-1.03-.26-2.44.89-2.87-1.93-5.41-1.43-10.39,3.72-13.5,4.85-2.92,11.01-2.21,14.15,2.09,4.11,5.63,5.25,13.25,3.69,17.46-.72,1.94-2.57,4.26-5.48,4.28"/>
              <path class="cls-3" d="m55.5,136.9c-1.46.07-3.94.9-6.1,1.78-1.64.67-3.14.88-4.64,1.58-2.38,1.12-3.59,2.09-4.37,3.44-.33.57-.34,1.36-.83,2.1-.32.48-.69.46-1.41,1.45-1.9,2.6-1.15,5.97,1.65,8.25.75.06,1.08.04,1.72.36,1.25.63,2.29,2.83,3.4,2.23,1.29-.71-.4-3.26-.46-4.92-.06-2.02,1.61-3.56,1.92-5.23.15-.82.13-1.55.04-2.25,2.4,1.72,6.28,1.32,10.23-1.03.29-.18.61-.4.92-.65-.71-2.34-1.32-4.73-2.06-7.11Z"/>
              <g>
                <path class="cls-13" d="m48.49,163.63c2.01,1.27,5.14,2.38,7.39,2.19l.09,2.64c-1.48.16-5.72-.36-7.48-4.83"/>
                <g>
                  <path class="cls-3" d="m60.28,147.92c.04.32-.93.7-2.16.84-1.23.15-2.27.01-2.31-.31-.04-.32.93-.69,2.16-.84,1.24-.15,2.27-.01,2.31.31"/>
                  <path class="cls-3" d="m59.94,151.44c.13.53-.09,1.04-.48,1.13-.39.09-.82-.26-.95-.79-.13-.53.08-1.04.48-1.13.39-.09.82.26.95.79"/>
                  <path class="cls-3" d="m53.51,149.08c.13.29-.7.92-1.84,1.39-1.15.48-2.18.62-2.31.33-.13-.29.7-.92,1.85-1.4,1.15-.48,2.18-.62,2.3-.33"/>
                  <path class="cls-3" d="m52.7,153.55c.13.53-.08,1.04-.48,1.13-.39.09-.82-.26-.95-.79-.13-.53.08-1.04.48-1.13.39-.09.82.26.95.79"/>
                  <path class="cls-23" d="m56.96,156.63s.04,0,.05-.02c.49-.2.8-.47.95-.84.31-.75-.11-1.68-.64-2.86-.34-.75-.72-1.6-.98-2.55-.05-.17-.23-.28-.4-.23-.18.05-.28.22-.24.4.27.99.66,1.87,1.01,2.64.45,1,.84,1.86.64,2.36-.08.2-.28.36-.59.49-.17.07-.25.26-.18.43.06.15.22.23.37.19"/>
                  <path class="cls-23" d="m57.23,160.75c-.29,0-.61-.05-.98-.16-.15-.05-.24-.21-.2-.36.04-.15.21-.24.36-.19,1.64.47,2.19-.46,2.21-.5.08-.14.25-.19.39-.11.14.07.19.25.12.38-.03.05-.54.96-1.91.94"/>
                </g>
              </g>
              <g>
                <path class="cls-32" d="m60.02,144.92s-6.84,3-13.88,3.21c-7.04.21-9.18,2.61-9.18,2.61l-.76-2.67c-1.77-6.23,1.92-12.7,8.25-14.45,6.33-1.74,12.9,1.89,14.67,8.13l.9,3.17Z"/>
                <path class="cls-27" d="m43.38,133.97c-.37.14-.73.3-1.08.47,5.59-.43,10.95,3.22,12.58,8.94l.87,3.06c.83-.25,1.58-.5,2.2-.72l-.84-2.95c-1.74-6.11-7.74-9.86-13.73-8.8"/>
                <g>
                  <path class="cls-20" d="m38.49,147.66h0c-.26.07-.54-.08-.61-.34l-.33-1.17c-.07-.26.08-.53.34-.6.26-.07.54.08.61.34l.33,1.17c.07.26-.08.53-.35.6"/>
                  <path class="cls-20" d="m39.97,147.25h0c-.26.07-.54-.08-.61-.34l-.33-1.16c-.07-.26.08-.53.34-.6.26-.07.54.08.61.34l.33,1.16c.07.26-.08.53-.34.6"/>
                  <path class="cls-20" d="m41.45,146.85h0c-.27.07-.54-.08-.61-.34l-.33-1.17c-.07-.26.08-.53.35-.6.26-.07.54.08.61.34l.33,1.16c.07.26-.08.53-.34.6"/>
                </g>
                <g>
                  <path class="cls-27" d="m35.99,150.17c.14.52.69.84,1.23.7l22.63-5.78c.54-.14.87-.68.73-1.2h0c-.14-.52-.69-.84-1.23-.7l-22.63,5.78c-.54.14-.87.68-.73,1.2h0Z"/>
                  <path class="cls-27" d="m46.02,150.33l16.7-4.46c.65-.17,1.07-.73.93-1.25h0c-.14-.53-.76-.6-1.43-.65-.67-.05-2.22-.12-2.22-.12l-20.86,5.52s5.48,1.32,6.88.97Z"/>
                </g>
              </g>
            </g>
            <g>
              <path class="cls-2" d="m50.96,172.66c-1.43,1.43,2.01,6.58,2.97,6.59.63,0,3.23-3.76,4.28-5.18.44-.6,1.04-1.37.93-2.19-.11-.8-1.45-1.98-2-2.48-.54-.5-1.3.05-2.02.47-.47.28-3.48,2.2-4.17,2.78Z"/>
              <path class="cls-2" d="m50.36,172.65c1.58,1.43-1.67,7-2.66,7.06-.65.04-6.4-5.02-7.58-6.45-.5-.6-1.17-1.38-1.11-2.24.06-.84,1.38-2.15,1.92-2.71.53-.55,1.35-.02,2.13.39.51.26,6.57,3.37,7.31,3.95Z"/>
            </g>
          </g>
        </g>
        <g>
          <g>
            <path class="cls-15" d="m38.34,253.95c-.05.41-.26,1.38-1.12,1.34-.77-.03-1.62-2.27-2.28-3.44-.69-1.23-1.19-2.65-1.99-3.82-.57-.83-1.55-1.59-2.32-2.22-.82-.68-1.93-1.15-2.51-1.86-1.3-1.58-1.34-3.96-1.62-5.93,2.29-1.09,5.59-2.8,7.49-3.98.55,1.53,1.84,2.33,2.98,3.32,1.61,1.38,3.02,2.5,4.58,4.19.78.85,1.6,1.73,1.96,2.73.36,1,.26,2.14.16,3.17-.09.95-.09,2.51-.97,2.5-.78-.01-.65-1.88-1.04-2.7-.85-1.79-2.34-2.62-2.43-2.59.71,1.58,1.9,3.85,1.75,5.7-.07.94-1.04,5.8-2.66,3.61"/>
            <path class="cls-12" d="m34,234.03c-.87,1.74-4.87,4.73-7.49,3.98,1.07-.57,6.36-3.24,7.49-3.98"/>
            <path class="cls-13" d="m32.92,247.94c-1.09-1.21-1.83-1.8-2.65-2.33-1.7-1.09-3.41-2.28-3.46-5.17,1.4,3.5,4.45,4.55,6.11,7.49"/>
            <path class="cls-13" d="m42.21,249.48c-.63-1.08-.6-2.43-1.31-3.49-.66-.98-1.51-1.17-1.65-1.36,1-.25,1.6.02,2.4.85,1.01,1.05-.27,2.46.57,4"/>
            <path class="cls-13" d="m38.34,253.95c-.35-2.17-1.41-5.08-2.46-7,1.71,1.94,2.4,4.84,2.46,7"/>
            <path class="cls-13" d="m37.56,245.83c1.84,1.42,3.51,5.83,2.53,7.84.16-1.76-.85-5.56-2.53-7.84"/>
          </g>
          <g>
            <path class="cls-7" d="m17.15,214.14c7.2,6.09,13.15,13.29,19.35,20.27-3.16,3.61-6.33,7.22-10.15,10.1-7.25-5.62-14.38-12.25-20.2-19.65-2.31-2.94-5.33-6.16-6.1-10.39-.09-.48-.08-1.96.03-2.67.61-4.17,3.55-8.51,5.7-12.1,4.34-7.26,9.44-13.88,15.54-19.27,3.28-2.9,6.53-6.42,11.04-7.41,5.35-1.18,6.3,6.19,4.4,10.22-5.54,11.79-13.21,21.6-19.61,30.91Z"/>
            <path class="cls-25" d="m35.04,173.23c1.59,2.18,1.56,6.2.33,8.82-5.53,11.77-13.19,21.58-19.58,30.88.48.35.94.72,1.38,1.12h.05c6.39-9.28,14.02-19.07,19.54-30.82,1.52-3.23,1.21-8.59-1.72-10Z"/>
            <path class="cls-25" d="m8.47,225.12c-2.31-2.94-5.32-6.16-6.1-10.39-.09-.48-.08-1.96.03-2.67.61-4.17,3.55-8.51,5.7-12.1,4.34-7.26,9.44-13.88,15.54-19.27,3.28-2.9,6.53-6.42,11.04-7.41.12-.02.23-.04.34-.06-.72-.34-1.6-.44-2.65-.21-4.51,1-7.76,4.52-11.04,7.41-6.1,5.39-11.2,12.01-15.54,19.27-2.14,3.59-5.08,7.93-5.7,12.1-.11.72-.11,2.19-.03,2.67.77,4.23,3.79,7.45,6.1,10.39,4.67,5.95,10.2,11.38,15.94,16.21-4.92-4.99-9.63-10.84-13.64-15.94Z"/>
            <polygon class="cls-25" points="17.15 214.14 12.99 211.03 18.58 212.09 17.15 214.14"/>
          </g>
        </g>
      </g>
      <g>
        <g>
          <g>
            <g>
              <g>
                <g>
                  <path class="cls-17" d="m158.75,363.76s2.01,10.04,4.01,11.98c0,0-3.79,2.78-11.36-2.09l-2.53-9,9.89-.88Z"/>
                  <path class="cls-5" d="m148.86,364.65c1.14,2.2,8.3,2.47,10.09.42l-10.09-.42"/>
                </g>
                <path class="cls-9" d="m149.73,368.52c3.92-.05,7.81-.06,11.52.1.4-.06.13.56.21.82.83,2.19,3.2,3.79,5.5,4.68,3.51,1.36,7.9,1.63,7.87,6.3-.24.38-1.05.22-1.64.22-8.61.08-17.48-.13-26.12-.07.07-2.19.65-4.15,1.08-6.08.42-1.93.85-3.78,1.39-5.67,0-.18.07-.27.2-.31"/>
              </g>
              <g>
                <g>
                  <path class="cls-17" d="m115.33,363.52s.53,6.9,1.51,10.17c-2.28,2.14-10.15,4.8-12.46.89.66-.24,1.2-.87,1.44-2.08.5-2.57-.37-4.98-.67-8.18,3.35.07,6.97-.75,10.19-.8"/>
                  <path class="cls-5" d="m115.47,365.06c-1.07,1.35-6.94,3.23-10.32.09,0,0,10.09-1.63,10.19-1.63"/>
                </g>
                <path class="cls-9" d="m116.8,368.52c-3.93-.03-7.83-.04-11.55.13-.41-.06-.13.57-.21.82-.83,2.2-3.2,3.81-5.5,4.71-3.52,1.37-7.92,1.66-7.88,6.34.25.38,1.05.21,1.65.22,8.63.06,17.52-.18,26.19-.13-.07-2.2-.67-4.16-1.1-6.09-.42-1.93-.87-3.79-1.4-5.68,0-.18-.08-.27-.2-.31"/>
              </g>
            </g>
            <path class="cls-3" d="m93.34,231.32c13.66,2.19,27.08,4.62,40.79,6.76,2.76,24.06,7.56,38.09,12.26,60.46,4.69,22.39,9.75,45.69,16.27,66.53l-15.7.02c-14.14-24.86-32.94-109.17-32.87-107,.55,18.88-.15,25.99.58,44.85.84,21.75,1.17,40.55,1.8,62.19l-13.84.02c-6.99-33.11-9.62-56.4-11.24-95.39-.53-12.92-.08-26.4,1.85-38.1,0-.16-.02-.32.11-.33"/>
            <path class="cls-43" d="m113.46,244.91c.14,4.78.55,9.72,1.09,14.73,2.96,11.58,19.6,82.92,32.41,105.44h4.24c-14.21-26.39-37.81-122.32-37.74-120.18Z"/>
            <path class="cls-43" d="m98.02,232.65c-.01-.16-.02-.32.11-.33,12.07,1.94,23.97,4.05,36.03,5.99,0-.07-.02-.15-.03-.22-13.71-2.15-27.13-4.57-40.79-6.76-.13.02-.12.18-.11.33-1.93,11.7-2.38,25.18-1.85,38.1,1.61,38.99,4.25,62.28,11.24,95.39h4.58c-6.83-32.59-9.43-55.8-11.03-94.4-.53-12.92-.08-26.4,1.85-38.1Z"/>
          </g>
          <path class="cls-43" d="m93.18,230.94l41.75,12.23s-8.9,3.44-25.77-2.2c-14.06-4.7-15.98-10.03-15.98-10.03"/>
        </g>
        <g>
          <g>
            <g>
              <g>
                <g>
                  <path class="cls-8" d="m199.72,223.78c.35,2.76-9.4,6.66-12.14,6.94-.78-.98-1.16-2.28-1.34-3.76,2.72-.82,6.03-1.86,9.18-2.68,1.56-.41,2.97-.91,4.29-.49"/>
                  <path class="cls-6" d="m199.13,223.66c-1.42,2.1-11.83,7.06-12.88,3.66-.19-.62,1.83-1.09,2.66-1.34,1.04-.31,2.04-.57,3.11-.86,3.07-.81,5.26-1.45,7.11-1.47"/>
                </g>
                <g>
                  <path class="cls-1" d="m148.47,181.73c7.41,3.04,7.75,14.86,6.65,24.03-.94,7.78-2.95,14.59-5.01,19.55,11.31-.66,23.63-.5,35.7-.53.31.89,2.59,6.35,2.59,6.35-.58.53-17.34,5.32-23.31,6.42-4.2.77-9.18,1.45-13.18,1.6-5.35.19-10.04-.12-13.04-1.93,3.12-11.2,7.93-23.2,10.62-35.46,1.45-6.6,1.78-14.55-.86-19.66-.05-.1-.13-.18-.13-.18l-.02-.18Z"/>
                  <path class="cls-35" d="m165.07,235.68c-4.2.77-9.18,1.45-13.18,1.6-5.08.18-9.57-.09-12.58-1.67-.16.54-.31,1.07-.46,1.61,3,1.81,7.69,2.12,13.04,1.93,4-.14,8.97-.82,13.18-1.6,5.98-1.1,22.73-5.89,23.31-6.42,0,0-.28-.67-.65-1.58-3.22,1.18-17.29,5.15-22.66,6.13"/>
                </g>
              </g>
              <path class="cls-11" d="m142.76,230.33c-1.02,3.55-2.18,6.98-3.11,10.34.1-.08.21-.16.31-.24,3.32-3.95,5.21-8.95,7.02-14.77,1.37-4.39,2.51-9.19,3.25-14.03.74-4.78,1.45-10.46,1.34-15.76-.11-5.23-.41-10.68-3.17-14.24,0,0-.15-.02-.11.22,3.24,5.89,1.4,14.76.3,21.91-1.45,9.41-3.43,18.22-5.83,26.59"/>
            </g>
            <g>
              <g>
                <polygon class="cls-41" points="179.19 224.38 180.7 221.65 178.63 221.31 179.19 224.38"/>
                <rect class="cls-26" x="169.02" y="207.91" width="25.37" height="2.1" transform="translate(-53.67 354.84) rotate(-80.78)"/>
                <path class="cls-20" d="m182.94,194.86c.09-.57.63-.96,1.2-.87.57.09.96.63.87,1.21l-.23,1.42-2.07-.34.23-1.42Z"/>
              </g>
              <path class="cls-23" d="m173.29,238.15c.7.83,2.02,1.17,2.96.75l28.53-15.28c1.11-.67,1.57-2.08,1.01-3.12l-11.27-17.48c-.67-.87-2.21-.89-3.42-.07l-31.33,19.4c-1.04.57-1.21,1.55-.39,2.2l13.92,13.59Z"/>
            </g>
          </g>
          <path class="cls-1" d="m130.61,170.8c1.12,4.68,4.51,8.45,9.53,7.57,2.31-.4,3.08-1.75,3.08-1.75,1.38.88,2.55,1.77,3.46,2.7,2.78,2.79,3.69,6.77,3.7,12.12,0,6.72-1.27,13.09-2.43,18.67-2.37,11.41-5.99,23.17-8.54,33.54-8.57-.8-16.57-3.12-24.26-5.42-7.69-2.3-15.31-4.39-22.36-7.46,2.68-14.73,7.77-30.54,12.75-44.17,1.69-4.62,3.79-9.16,6.66-12.27,3.93-4.27,11.31-5.76,18.41-3.52"/>
          <path class="cls-45" d="m146.71,179.24c-.65-.65-1.42-1.29-2.3-1.92.48,8.9-1.32,28.54-14.82,66.59,3.12.65,6.3,1.18,9.57,1.48,2.61-10.61,6.31-22.65,8.74-34.33,1.19-5.71,2.49-12.23,2.49-19.11,0-5.47-.83-9.86-3.67-12.71Z"/>
          <path class="cls-45" d="m128.73,170.3c-6.52-1.48-13.83,0-17.42,4.13-2.85,3.27-5.09,7.83-6.82,12.56-5.1,13.96-10.3,30.13-13.05,45.21,7.21,3.14,15.01,5.29,22.89,7.64,2.44.73,4.91,1.46,7.42,2.15,12.9-52.63,8.3-68.79,6.99-71.69Z"/>
          <g>
            <g>
              <path class="cls-7" d="m131.4,216.2c11.53-1.75,23.02-3.54,35.69-4.16.26,4.04.81,7.79,1.08,11.81-8.24,1.01-14.45,3.4-20.96,5.6-6.49,2.19-12.48,5.46-20.96,5.47-3.53,0-6-.9-7.83-2.51-2.47-2.17-4.59-7.05-5.85-11.14-3.1-10.04-5.09-25.15-3.24-37.95.85-5.85,2.52-11.17,7.68-12.62,3.8-1.06,6.66,2.12,7.7,4.77.57,1.44.72,3.16,1.07,4.91,2.19,10.86,4.05,24.51,5.62,35.82"/>
              <g>
                <path class="cls-25" d="m131.4,216.75c-1.57-11.31-3.15-24.85-5.35-35.71-.35-1.75-.78-4.12-1.34-5.56-1.04-2.65-3.9-5.83-7.7-4.77-.18.05-.35.12-.53.18,3.21-.2,5.6,2.59,6.54,4.96.57,1.44.83,3.75,1.19,5.5,2.19,10.85,3.93,24.42,5.5,35.73,0,0,1.72-.33,1.7-.33"/>
                <path class="cls-10" d="m168.17,224.39c-.03-.45-.07-.88-.11-1.32-5.58,1.33-13.61,3.35-19.82,5.45-5.98,2.02-21.72,6.43-27.17.85-2.63-2.69-4.64-6.19-5.98-9.81-4.58-12.35-5.53-36.14-3.18-44.42.2-.45.31-1.02.65-1.36-3.58,3.58-3.89,17.92-3.89,17.94-.2,6.06.28,12.28,1.18,18.01.58,4,1.4,7.8,2.49,11.3.08.26.15.53.23.79,1.27,4.09,3.38,8.97,5.85,11.14.08.07.17.14.26.21.46.43.95.82,1.47,1.12,1.98,1.16,4.66,1.34,7.3,1.19,2.36-.14,5.04-.36,7.38-1.14h0c4.43-1.15,33.34-9.93,33.34-9.93"/>
                <path class="cls-10" d="m131.05,214.18l.36,2.57s-3.19.62-4.91.93c1.63-1.92,4.55-3.5,4.55-3.5"/>
              </g>
            </g>
            <g>
              <path class="cls-17" d="m177.04,209.65c.86.98-1.1,2.73-2.48,3.81,3.41.1,8.05,1.21,10.98,2.68.9.45,2.51,1.09,2.39,1.99-.15,1.16-2.16.75-3.18.53-1.41-.3-2.21-.69-3.45-.79.08.22.49,1.3,0,1.86-.4.46-.78.46-1.46.4.11.86.08,1.18-.53,1.73-.72.65-2.12.14-2.12.14-.23.5-.74,1.22-1.37,1.63-1.97,1.29-4.83.01-7.65.77-.42-3.88-.55-8.04-1.08-11.81,1.87-.24,3.15-.53,4.78-1.2,1.52-.63,2.75-1.73,3.98-2.13.3-.09.88.04,1.2.4"/>
              <path class="cls-5" d="m177.21,209.96c.42,1.24-1.58,3.71-4.09,3.81.84-.32,2.31-1.59,2.77-2.59.29-.63.21-1.77-.78-1.62.98-.72,1.86-.31,2.1.4"/>
              <path class="cls-5" d="m180.15,217.01c2.13.84,2.12,3.68-.31,3.12.19.39.07,1.06-.13,1.33-.64.87-1.67.88-2.52.54-.47,1.25-1.63,2.21-3.45,2.39-1.29.13-4.09.05-5.57,0,0,0,1.28-.26,1.99-.4,2.2-.45,5.16-.36,5.31-2.53.94.05,1.64-.05,2.12-.53.31-.31.72-1.08.62-1.75.93-.27,2.4-.94,1.94-2.17"/>
            </g>
          </g>
          <g>
            <g>
              <g>
                <path class="cls-17" d="m145.35,171.38l-1.27,4.94c-3.18,4.12-9.83,2.02-12.13-.94-1.5-1.93-.92-2.98-.39-5,.72-2.74,1.42-5.55,2.21-8.17-.94-.3-2.26-1.36-2.56-2.88-.23-1.15.45-2.45,1.67-2.54-.3-5.81,1.61-10.53,7.44-12.1,5.49-1.48,11.19.96,12.97,6.03,2.33,6.65,1.23,14.39-1.47,18.05-1.24,1.69-3.69,3.42-6.48,2.62"/>
                <path class="cls-3" d="m150.27,146.16c1.61-.01,3.65-.79,4.27.46,1,2.01.44,4.09-2.09,4.76-4.46,1.17-8.59.07-10.4-2.28-.12.7-.31,1.42-.69,2.18-.78,1.54-2.83,2.57-3.34,4.55-.43,1.64.47,4.6-.97,4.92-1.24.28-1.6-2.16-2.62-3.13-.52-.5-.84-.57-1.54-.84-2.03-3.01-1.78-6.5.79-8.5.98-.76,1.33-.64,1.77-1.01.68-.59.92-1.36,1.4-1.81,1.14-1.09,2.57-1.7,5.18-2.11,1.65-.26-.14,1.1,1.63.91,4.22-.45,11.29-.96,6.62,1.91"/>
                <path class="cls-5" d="m138.89,167.15c1.56,1.8,4.25,3.77,6.46,4.22l-.67,2.59c-1.47-.27-5.39-1.97-5.79-6.82"/>
                <path class="cls-3" d="m155.13,162.33c-.51,1.43-2,2.21-3.88,1.74-.77-.19-1.23-.89-1.41-.87-.21.03-.04.66-1.28,1.38-1.76,1.01-4.12.44-4.57-1.19,2.5.24,3.5-2.68,5.72-1.9,1.67-1.17,2.52.33,3.79.71.63.18,1.09.07,1.64.14"/>
                <path class="cls-3" d="m153.99,153.26c0,.32-1.01.58-2.26.56-1.24-.01-2.25-.29-2.25-.61,0-.33,1.01-.58,2.26-.56,1.24.01,2.25.29,2.25.61"/>
                <path class="cls-3" d="m153.18,156.75c.06.55-.22,1.04-.62,1.08-.4.04-.78-.37-.84-.92-.06-.55.22-1.04.62-1.08.4-.04.78.37.84.92"/>
                <path class="cls-3" d="m147.13,153.54c.09.31-.82.83-2.01,1.16-1.2.33-2.24.34-2.33.03-.09-.31.82-.83,2.02-1.16,1.2-.33,2.24-.34,2.33-.03"/>
                <path class="cls-3" d="m145.72,157.93c.06.55-.22,1.04-.62,1.08-.4.04-.78-.37-.84-.92-.06-.55.22-1.03.62-1.08.4-.04.78.37.83.92"/>
                <path class="cls-19" d="m149.54,161.59s.04,0,.06,0c.51-.13.85-.37,1.05-.73.4-.71.11-1.71-.26-2.97-.23-.8-.5-1.71-.63-2.69-.02-.18-.19-.31-.37-.28-.18.02-.31.19-.29.37.14,1.03.41,1.97.65,2.79.31,1.07.58,1.99.32,2.46-.11.19-.32.33-.65.41-.18.05-.28.23-.24.4.04.16.19.26.35.24"/>
                <path class="cls-19" d="m149.26,165.77c-.29-.05-.6-.13-.95-.29-.15-.07-.21-.24-.15-.38.06-.15.24-.21.38-.15,1.56.69,2.23-.18,2.26-.22.1-.13.28-.15.41-.06.13.1.16.27.07.4-.03.05-.67.9-2.02.7"/>
              </g>
              <g>
                <path class="cls-2" d="m138.68,176.65c-1.78.99.04,6.98.96,7.26.6.18,4.17-2.75,5.59-3.83.6-.45,1.39-1.04,1.52-1.87.13-.81-.83-2.34-1.21-2.98-.38-.64-1.26-.32-2.07-.11-.53.14-3.97,1.16-4.79,1.53Z"/>
                <path class="cls-2" d="m138.1,176.46c1.1,1.84-3.61,6.35-4.58,6.13-.64-.15-4.7-6.7-5.43-8.42-.31-.73-.72-1.68-.42-2.5.3-.8,1.94-1.7,2.61-2.09.67-.39,1.3.37,1.93.98.41.4,5.33,5.14,5.88,5.91Z"/>
              </g>
            </g>
            <g>
              <path class="cls-45" d="m155.01,148.1s-7.03,2.58-14.07,2.31c-7.04-.26-9.34,2.02-9.34,2.02l-.57-2.76c-1.34-6.44,2.79-12.74,9.23-14.08,6.43-1.34,12.74,2.79,14.08,9.23l.68,3.28Z"/>
              <path class="cls-32" d="m139.17,135.88c-.38.12-.75.25-1.11.4,5.61-.06,10.71,4.01,11.93,9.91l.66,3.16c.85-.2,1.61-.4,2.24-.58l-.63-3.05c-1.31-6.31-7.04-10.52-13.09-9.84"/>
              <g>
                <path class="cls-20" d="m133.34,149.42h0c-.27.06-.53-.12-.59-.38l-.25-1.2c-.06-.27.12-.53.38-.59.27-.06.53.11.59.38l.25,1.2c.06.27-.12.53-.38.59"/>
                <path class="cls-20" d="m134.85,149.11h0c-.27.06-.53-.12-.59-.39l-.25-1.2c-.06-.27.12-.53.38-.59.27-.06.53.11.59.38l.25,1.2c.06.27-.12.53-.39.59"/>
                <path class="cls-20" d="m136.36,148.79h0c-.27.06-.53-.12-.59-.38l-.25-1.2c-.06-.27.12-.53.39-.59.27-.06.53.12.59.39l.25,1.2c.06.27-.12.53-.39.59"/>
              </g>
              <g>
                <path class="cls-32" d="m130.68,151.79c.1.54.63.89,1.18.79l22.97-4.33c.55-.1.92-.63.81-1.17h0c-.1-.54-.63-.9-1.18-.79l-22.98,4.33c-.55.1-.91.63-.81,1.17h0Z"/>
                <path class="cls-32" d="m140.67,152.63l16.97-3.39c.66-.12,1.12-.67,1.02-1.21h0c-.1-.54-.72-.66-1.39-.76-.66-.1-2.2-.28-2.2-.28l-21.2,4.18s5.37,1.71,6.8,1.44Z"/>
              </g>
            </g>
          </g>
        </g>
      </g>
    </g>
  </g>
</svg>